<svg width="36" height="36" viewBox="0 0 36 36" fill="#000" xmlns="http://www.w3.org/2000/svg">
<path d="M9.25296 6.55347C7.58875 6.55347 6.35754 8.01066 6.41263 9.5909C6.46544 11.1089 6.39679 13.0752 5.90187 14.6785C5.40547 16.2868 4.56624 17.3034 3.19507 17.434V18.9151C4.56619 19.0457 5.40547 20.0623 5.90187 21.6706C6.39679 23.2739 6.46544 25.2402 6.41257 26.7583C6.35754 28.3385 7.58875 29.7957 9.25296 29.7957H26.3059C27.9702 29.7957 29.2014 28.3385 29.1463 26.7583C29.0935 25.2402 29.1621 23.2739 29.657 21.6706C30.1534 20.0623 30.9906 19.0457 32.3617 18.9151V17.434C30.9906 17.3034 30.1534 16.2868 29.657 14.6785C29.1621 13.0752 29.0935 11.1089 29.1463 9.5909C29.2014 8.01066 27.9702 6.55347 26.3059 6.55347H9.25296ZM22.7288 20.8578C22.7288 23.0337 21.1052 24.3529 18.4109 24.3529H13.4433C13.4131 24.3529 13.3841 24.3409 13.3628 24.3196C13.3414 24.2982 13.3294 24.2692 13.3294 24.239V12.1052C13.3294 12.075 13.3414 12.046 13.3628 12.0247C13.3841 12.0033 13.4131 11.9913 13.4433 11.9913H18.3846C20.6313 11.9913 22.1057 13.2077 22.1057 15.0753C22.1057 16.386 21.114 17.5596 19.8502 17.7652V17.8337C21.5704 18.0222 22.7288 19.213 22.7288 20.8578ZM17.9106 13.559H15.2953V17.2512H17.4981C19.2007 17.2512 20.1398 16.5659 20.1398 15.3408C20.1398 14.1929 19.3324 13.559 17.9106 13.559ZM15.2953 18.7161V22.7853H18.0072C19.78 22.7853 20.719 22.0742 20.719 20.7379C20.719 19.4014 19.7536 18.7161 17.8931 18.7161H15.2953Z" fill="#000"/>
</svg>
