<svg xmlns="http://www.w3.org/2000/svg" width="24" height="24" viewBox="0 0 24 24">
    <path fill="#000" fill-rule="nonzero" d="M4.24 6.431l7-4.219a1.469 1.469 0 0 1 1.52 0l7 4.22c.459.275.74.78.74 1.324v8.488c0 .545-.281 1.049-.74 1.325l-7 4.219a1.469 1.469 0 0 1-1.52 0l-7-4.22a1.545 1.545 0 0 1-.74-1.324V7.756c0-.545.281-1.049.74-1.325zm7.648 9.29c-2.013 0-3.652-1.67-3.652-3.721 0-2.05 1.64-3.722 3.652-3.722 1.356 0 2.548.76 3.174 1.9L17 9.037C15.986 7.23 14.079 6 11.888 6 8.638 6 6 8.689 6 12s2.638 6 5.888 6c2.176 0 4.084-1.215 5.097-3.008l-1.923-1.154a3.642 3.642 0 0 1-3.174 1.884z"/>
</svg>
