<svg xmlns="http://www.w3.org/2000/svg" width="24" height="24" viewBox="0 0 24 24">
    <path fill="#000" fill-rule="nonzero" d="M21.65 9.56l.255.162-.143.292c-.572 1.152-1.778 1.509-2.952 1.444-1.747 4.462-5.572 6.588-10.207 6.588-2.397 0-4.587-.91-5.857-3.116l-.175-.357c-.428-.957-.555-1.963-.476-3.002l.032-.243h1.778V9.284h2.063V7.109h3.969V5h2.38v4.284h2.064v2.06h1.063c.477 0 .969-.162 1.413-.324.222-.081.46-.26.683-.39-.286-.39-.429-.876-.477-1.346-.063-.65.064-1.493.493-1.996l.222-.26.254.211c.635.52 1.174 1.25 1.27 2.093.761-.227 1.666-.178 2.349.227zM8.366 14.605a.511.511 0 0 0-.492-.503.5.5 0 0 0-.492.503.5.5 0 0 0 .492.503.5.5 0 0 0 .492-.503zm-.492-.357c.048 0 .095.016.127.032-.032.016-.063.065-.08.13 0 .081.064.146.143.146.064 0 .096-.032.127-.081a.311.311 0 0 1 .032.13.356.356 0 0 1-.349.357.356.356 0 0 1-.35-.357c0-.195.16-.357.35-.357zm.746 3.44h.54c-1.19-.585-1.857-1.38-2.222-2.24-.445.13-.985.211-1.604.244-.238.016-.492.016-.746.016-.285 0-.603-.016-.936-.032 1.11 1.135 2.46 1.995 4.968 2.012zM6.286 7.434v1.85h1.587v-1.85H6.286zm0 2.11v1.784h1.587V9.543H6.286zm-2.064 0v1.784h1.746V9.543H4.222zm5.715 1.784V9.543H8.19v1.785h1.747zm0-2.044v-1.85H8.19v1.85h1.747zM12 11.328V9.543h-1.746v1.785H12zm0-2.044v-1.85h-1.746v1.85H12zm0-2.175V5.325h-1.746v1.784H12zm2.063 4.219V9.543h-1.746v1.785h1.746z"/>
</svg>
