<svg xmlns="http://www.w3.org/2000/svg" width="24" height="24" viewBox="0 0 24 24">
    <path fill="#000" fill-rule="nonzero" d="M21.948 17.211c-.724.182-1.172.008-1.573-.588-.902-1.336-1.897-2.61-2.858-3.908-.123-.168-.252-.333-.412-.541-1.137 1.516-2.272 2.96-3.337 4.461-.38.537-.78.77-1.492.58l4.273-5.67-3.978-5.12c.685-.132 1.158-.064 1.577.542.925 1.337 1.946 2.61 2.963 3.956 1.024-1.342 2.032-2.616 2.984-3.94.383-.537.794-.741 1.481-.544-.52.683-1.03 1.355-1.543 2.022-.692.899-1.371 1.81-2.089 2.69-.255.313-.214.517.015.814 1.327 1.725 2.638 3.467 3.989 5.246zm-19.896-5.76c.115-.566.19-1.143.35-1.699.952-3.363 4.857-4.761 7.54-2.677 1.57 1.222 1.961 2.946 1.883 4.888H2.968c-.133 3.486 2.405 5.59 5.64 4.517 1.135-.377 1.803-1.256 2.138-2.354.17-.55.45-.637.975-.48-.269 1.374-.877 2.523-2.146 3.242-1.905 1.076-4.624.728-6.054-.768-.845-.878-1.204-1.972-1.362-3.154-.024-.188-.073-.373-.111-.56.003-.318.004-.636.004-.954zm.932-.233h8.005c-.052-2.52-1.64-4.31-3.81-4.327-2.38-.018-4.092 1.73-4.195 4.327z"/>
</svg>
