<svg xmlns="http://www.w3.org/2000/svg" width="24" height="24" viewBox="0 0 24 24">
    <path fill="#000" fill-rule="nonzero" d="M21.49 11.122L12.88 2.51a1.27 1.27 0 0 0-1.796 0L9.294 4.298l2.268 2.269a1.508 1.508 0 0 1 1.91 1.923l2.186 2.186a1.51 1.51 0 1 1-.905.852L12.715 9.49v5.365a1.512 1.512 0 1 1-1.738 2.424c-.59-.591-.638-1.548-.048-2.138a1.61 1.61 0 0 1 .446-.33V9.396a1.597 1.597 0 0 1-.446-.33c-.447-.447-.53-1.103-.302-1.653L8.404 5.177l-5.9 5.905a1.27 1.27 0 0 0 .004 1.797l8.613 8.611c.496.496 1.3.496 1.797 0l8.572-8.571a1.271 1.271 0 0 0 0-1.797z"/>
</svg>
