<svg xmlns="http://www.w3.org/2000/svg" width="24" height="24" viewBox="0 0 24 24">
    <path fill="#000" fill-rule="nonzero" d="M9.386 17.416c-3.063.851 1.863 2.61 5.763.947-.64-.247-1.097-.532-1.097-.532-1.74.327-2.546.353-4.124.174-1.303-.149-.542-.59-.542-.59zm5.296-1.66c-2.305.44-3.636.427-5.323.254-1.304-.135-.45-.763-.45-.763-3.373 1.113 1.878 2.377 6.592 1.006-.501-.176-.82-.497-.82-.497zm1.806-9.616c-4.344 2.506-3.541 3.233-2.495 4.696 1.12 1.569-1.32 2.821-1.32 2.821s1.214-.99.253-2.09C9.669 7.834 16.488 6.14 16.488 6.14zm1.595 12.88s.564.462-.62.82c-2.25.677-9.368.882-11.345.027-.71-.308.622-.735 1.041-.825.438-.094.687-.077.687-.077-.79-.553-5.108 1.088-2.193 1.558 7.95 1.282 14.492-.577 12.43-1.503zm-2.732-4.814c-3.677.962-10.778.514-8.734-.47C8.346 12.905 9.752 13 9.752 13s-3.62.856-1.282 1.167c.987.131 2.955.1 4.789-.052 1.498-.125 3.002-.393 3.002-.393s-.528.225-.91.485zm.895 2.404c-.017.046-.075.097-.075.097 4.99-1.304 3.156-4.6.77-3.765a.678.678 0 0 0-.32.245s.133-.054.428-.115c1.206-.25 2.935 1.606-.803 3.538zm-4.217-3.647C10.14 11.27 8.756 9.778 9.685 8.39c1.364-2.038 5.143-3.026 4.308-6.297 0 0 2.07 2.06-1.963 5.226-3.234 2.54-.737 3.989-.001 5.644zm4.352 8.214c-3.062.574-6.838.507-9.078.139 0 0 .459.378 2.816.529 3.587.228 9.096-.127 9.226-1.815 0 0-.25.64-2.964 1.147z"/>
</svg>
