<svg xmlns="http://www.w3.org/2000/svg" width="24" height="24" viewBox="0 0 24 24">
    <path fill="#000" fill-rule="nonzero" d="M3 3h18v18H3V3zm16.527 13.707c-.132-.821-.667-1.511-2.254-2.154-.55-.253-1.165-.435-1.348-.852-.065-.243-.073-.38-.032-.527.118-.478.688-.626 1.14-.49.29.098.565.322.731.68.777-.503.776-.5 1.318-.846-.199-.307-.305-.45-.435-.581-.467-.522-1.103-.79-2.121-.77l-.53.068c-.509.129-.993.396-1.277.753-.852.967-.609 2.66.428 3.355 1.021.767 2.522.941 2.714 1.658.186.878-.646 1.162-1.472 1.061-.61-.126-.948-.436-1.314-.999l-1.367.789c.164.36.337.522.612.833 1.304 1.323 4.567 1.258 5.152-.744.024-.069.182-.527.055-1.234zm-6.742-5.434h-1.683l-.007 4.353c0 .925.048 1.774-.103 2.034-.246.512-.884.448-1.175.349-.296-.146-.447-.352-.621-.645-.048-.084-.084-.149-.096-.154l-1.37.838c.229.468.564.873.993 1.136.642.385 1.504.504 2.406.296.587-.17 1.093-.525 1.359-1.064.383-.706.3-1.562.297-2.508.009-1.543 0-3.087 0-4.635z"/>
</svg>
