<svg xmlns="http://www.w3.org/2000/svg" width="24" height="24" viewBox="0 0 24 24">
    <path fill="#000" fill-rule="nonzero" d="M12.204 19.037c3.473.817 7.14.083 9.206-2.696 0 0-2.46 6.85-10.926 5.255-.134-.026-.261-.074-.39-.114l-.092-.028a11.17 11.17 0 0 1-.378-.128l-.042-.015a12.036 12.036 0 0 1-.34-.13l-.087-.035c-.12-.05-.24-.1-.359-.155l-.065-.03a12.178 12.178 0 0 1-.308-.147l-.08-.04-.044-.022c-.066-.034-.13-.07-.195-.104l-.15-.08a11.73 11.73 0 0 1-.271-.157l-.1-.059a13.5 13.5 0 0 1-.362-.228l-.1-.07a10.008 10.008 0 0 1-.231-.157l-.024-.018-.087-.063c-.08-.058-.159-.116-.238-.176l-.113-.09a10.632 10.632 0 0 1-.212-.17l-.105-.087a12.463 12.463 0 0 1-.255-.222l-.049-.043-.004-.004a10.475 10.475 0 0 1-.28-.263l-.083-.082a12.364 12.364 0 0 1-.205-.207l-.082-.085a12.616 12.616 0 0 1-.256-.279l-.01-.011-.005-.005a12.23 12.23 0 0 1-.251-.297l-.07-.086a12.62 12.62 0 0 1-.18-.229l-.074-.097a10.33 10.33 0 0 1-.195-.268l-.036-.05-.007-.01a10.717 10.717 0 0 1-.214-.319l-.063-.1c-.051-.08-.1-.16-.149-.24l-.072-.124c-.044-.075-.087-.15-.128-.226l-.07-.129-.039-.071-.062-.125c-.033-.065-.067-.13-.098-.196-1.338-2.762-1.556-6.143.195-8.741l1.367-1.79c-1.542 3.077-.849 6.824 1.08 9.541.07.1.14.196.214.294l.067.087c.061.08.123.159.186.237l.067.082c.084.103.17.204.257.303l.013.013c.083.094.167.186.253.278l.081.083c.068.071.137.14.207.21l.081.08c.095.09.19.181.288.27l.03.026c.09.08.181.16.273.238l.098.081c.073.06.146.12.22.178l.108.084c.08.061.161.122.243.182l.083.06c.085.06.171.12.258.177l.097.067c.12.078.24.155.362.229l.094.054c.092.055.184.109.278.161.05.03.103.056.155.084.077.04.154.082.232.121l.086.043c.1.05.2.097.3.144l.071.033c.117.053.236.104.355.153l.093.037c.109.044.218.086.329.126l.051.02c.124.043.248.085.374.125l.096.03c.128.04.256.082.388.112zm-3.05-7.087a8.318 8.318 0 0 1-.56-.966c-.988-1.99-1.057-4.509.21-6.39l1.034-1.508c-.842 1.469-.947 3.279-.46 4.891.463 1.555 1.438 2.927 2.669 3.93l.08.065c.115.091.232.18.353.267l.17.116.078.054c.087.057.174.112.262.165l.052.03c.071.044.144.086.216.127l.1.052c.056.03.112.061.17.09.112.057.226.112.341.164l.075.033c.092.04.185.078.279.116l.117.045c.086.032.172.063.259.092l.111.037c.122.04.245.077.37.11 2.812.754 5.446-.211 6.807-2.235 0 0-1.51 5.198-8.047 4.08-.126-.022-.247-.071-.368-.11l-.116-.038c-.086-.03-.17-.06-.255-.092l-.12-.045a7.797 7.797 0 0 1-.277-.117l-.075-.031a7.658 7.658 0 0 1-.339-.163l-.024-.012c-.055-.028-.11-.058-.163-.087l-.083-.044a10.61 10.61 0 0 1-.232-.134l-.037-.023a7.1 7.1 0 0 1-.263-.166l-.076-.052c-.055-.037-.109-.072-.162-.11l-.01-.009a8.602 8.602 0 0 1-.355-.267l-.077-.062a8.842 8.842 0 0 1-.339-.29l-.003-.003-.011-.01c-.1-.09-.196-.184-.29-.278l-.075-.077a7.78 7.78 0 0 1-.285-.304c-.251-.226-.462-.56-.651-.84zm6.89-2.327c-1.306-.495-2.426-1.538-2.972-2.868-.518-1.253-.444-2.662.302-3.796l.559-.796c-1.033 1.927-.05 4.292 1.533 5.532a5.238 5.238 0 0 0 1.398.78c.135.049.289.101.428.136 1.769.443 3.21.137 4.068-1.138-.261.388-1.24 3.02-4.85 2.3-.079-.015-.156-.044-.232-.069l-.072-.023-.162-.058z"/>
</svg>
