<svg xmlns="http://www.w3.org/2000/svg" width="24" height="24" viewBox="0 0 24 24">
    <path fill="#000" fill-rule="nonzero" d="M16.06 8.558a11.391 11.391 0 0 0-2.679-4.457c-.314-.324-.664-.621-.884-1.025-.139-.255-.271-.514-.406-.771l-.086-.212c-.015.048-.024.066-.024.083-.011.42-.253.704-.555.97-.339.298-.654.623-.98.936L9.444 5.376l-.81 1.462-.541 1.436c-.315.984-.462 1.972-.534 2.97-.027.376.004.757.025 1.134.03.539.126 1.069.27 1.59.52 1.896 1.574 3.468 3.016 4.804.268.248.543.474.823.71l.136.416.116.648.055.675c0 .137-.006.275.003.412.002.035.049.067.075.101l.233.08.244.093-.042-.6-.002-.591.084-.901.061-.196.174-.304c.216-.17.447-.324.643-.513.355-.343.708-.69 1.026-1.064a7.96 7.96 0 0 0 1.05-1.586c.191-.38.37-.769.519-1.167.13-.35.212-.719.315-1.08.009-.026.021-.051.027-.078.213-.973.249-1.956.17-2.947-.063-.798-.254-1.568-.52-2.322z"/>
</svg>
