<svg xmlns="http://www.w3.org/2000/svg" width="24" height="24" viewBox="0 0 24 24">
    <path fill="#000" fill-rule="nonzero" d="M21.76 20.872c.09.13.083.302.24.427v.03c-.315-.066-.31-.23-.455-.336-.293-.213-.616-.45-.916-.64-.51-.32-1.1-.503-1.629-.823-.297-.18-.583-.402-.86-.61-.254-.19-.539-.552-.707-.823-.087-.14-.105-.312-.215-.426.033-.25.353-.252.553-.336.706-.295 1.531-.395 2.612-.366-.033-.275-.704-.61-.922-.762-.436-.305-.887-.636-1.352-.915-.243-.145-.664-.258-.922-.365-.366-.154-1.173-.303-1.382-.58-.398-.527-.672-1.166-.953-1.799-.282-.634-.639-1.302-.922-1.951-.14-.322-.21-.612-.368-.916a11.933 11.933 0 0 0-4.21-4.574c-.582-.365-1.222-.702-1.936-.918-.404-.122-.889-.158-1.321-.158h-.277c-.242-.156-.445-.32-.645-.452-.418-.274-.829-.461-1.322-.665-.185-.076-.682-.258-.86-.121-.105.034-.151.078-.184.182-.104.156-.009.398.061.55.198.425.483.684.738 1.036.23.318.51.68.676 1.037.347.747.5 1.577.83 2.317.126.284.308.607.491.853.148.2.412.35.492.61.167.261-.247 1.15-.338 1.433-.354 1.092-.28 2.619.123 3.567.159.375.31.812.737.915.032-.025.008-.011.062-.03.09-.73.123-1.435.368-2.013.154-.36.447-.608.646-.914.146.083.145.327.215.488.181.418.368.871.584 1.282.45.859.945 1.686 1.505 2.44.2.269.467.563.707.797.102.1.227.126.307.282h-.035v.016c-.315-.14-.613-.554-.932-.793-.615-.461-1.29-1.145-1.7-1.8-.185-.365-.36-.73-.517-1.097v-.03c-.158.102-.09.214-.129.366-.173.67-.074 1.431-.681 1.677-.695.28-1.2-.452-1.414-.793-.698-1.112-.88-2.98-.4-4.482.107-.334.118-.743.308-1.006-.03-.237-.225-.304-.338-.457a6.33 6.33 0 0 1-.492-.824c-.289-.551-.483-1.2-.706-1.798-.091-.242-.11-.472-.215-.702-.162-.348-.45-.696-.677-1.005-.321-.442-1.22-1.293-.86-2.165.571-1.382 2.548-.33 3.319.152.193.122.408.372.615.458l1.013.06c.63.15 1.226.262 1.721.55 2.327 1.35 3.828 2.723 5.223 5 .291.474.443.995.676 1.524.342.775.72 1.58 1.105 2.317.185.352.312.735.551 1.037.101.127.366.167.519.244.454.227.977.402 1.406.67.773.485 1.509 1.066 2.197 1.647.263.222.487.547.645.792v.122c-.158.061-.4.122-.614.183-.477.122-.859.09-1.32.214-.276.073-.624.18-.922.213l.032.03c.176.486 1.12.89 1.54 1.19.527.375 1.029.827 1.42 1.34l.411.397zM6.648 5.354c.11.106.28.178.369.304.066.095.077.195.153.274.001.325-.086.538-.276.671l-.03.03-.308-.643c-.133-.188-.323-.396-.43-.553h-.032v-.022c.158-.037.329-.065.554-.061z"/>
</svg>
