<svg xmlns="http://www.w3.org/2000/svg" width="24" height="24" viewBox="0 0 24 24">
    <path fill="#000" fill-rule="nonzero" d="M19.482 6.413c.441.268.664.768.664 1.303v8.257c0 .536-.223 1.035-.664 1.305l-6.76 4.13a1.377 1.377 0 0 1-1.43 0l-2.275-1.413c-.34-.2-.175-.27-.063-.311.454-.165.543-.204 1.027-.491.05-.03.113-.019.166.013l1.74 1.09c.063.037.139.037.197 0l6.783-4.13c.064-.037.05-.114.05-.193V7.716c0-.08.01-.155-.055-.196l-6.757-4.126a.222.222 0 0 0-.217 0L5.067 7.52c-.066.04-.137.118-.137.195v8.257c0 .08.039.154.104.191l1.863 1.132c1.012.532 1.568-.094 1.568-.723V8.421c0-.115.217-.286.326-.286h.864c.108 0 .04.171.04.287v8.151c0 1.42-.666 2.233-1.947 2.233-.393 0-.633 0-1.498-.448l-1.803-1.08a1.558 1.558 0 0 1-.747-1.305V7.716c0-.535.3-1.036.74-1.303L11.28 2.28c.43-.256.99-.256 1.418 0l6.785 4.134zm-5.372 8.252c1.434 0 2.045-.34 2.045-1.141 0-.46-.173-.803-2.402-1.032-1.864-.194-3.016-.627-3.016-2.192 0-1.444 1.158-2.305 3.1-2.305 2.182 0 3.26.795 3.398 2.501a.216.216 0 0 1-.052.158.197.197 0 0 1-.144.064h-.885a.197.197 0 0 1-.19-.16c-.213-.99-.728-1.306-2.128-1.306-1.566 0-1.748.572-1.748 1.002 0 .52.215.668 2.33.962 2.093.291 3.087.697 3.087 2.242 0 1.559-1.237 2.44-3.395 2.44-2.981 0-3.605-1.461-3.605-2.667 0-.114.088-.252.197-.252h.88c.099 0 .18.12.196.222.133.942.53 1.464 2.332 1.464z"/>
</svg>
