<svg xmlns="http://www.w3.org/2000/svg" width="24" height="24" viewBox="0 0 24 24">
    <path fill="#000" fill-rule="nonzero" d="M12 6.8c5.523 0 10 2.293 10 5.122 0 2.829-4.477 5.122-10 5.122S2 14.75 2 11.922C2 9.093 6.477 6.8 12 6.8zm-2.602 6.12c.2-.186.362-.396.486-.62.124-.225.212-.476.265-.747.126-.657.03-1.178-.286-1.545-.317-.367-.822-.568-1.513-.568H6.052l-1.067 5.625H6.18l.284-1.654h1.024c.451 0 .823.02 1.114-.076.292-.096.557-.19.796-.415zm-1.5-2.652c.453 0 .756.115.907.284.151.17.187.491.108.903-.083.43-.242.714-.478.897-.235.184-.594.232-1.076.232h-.727l.446-2.316h.82zm4.988 3.143h1.205l.496-2.522c.1-.524.025-.845-.227-1.08-.253-.234-.71-.369-1.376-.369h-1.056l.284-1.488h-1.186L9.96 13.41h1.185l.61-3.143h.949c.303 0 .501.068.595.17.093.1.112.308.059.587l-.472 2.386zm6.59-1.85c.126-.656.03-1.186-.286-1.553-.317-.367-.821-.568-1.513-.568H15.38l-1.066 5.625h1.195l.284-1.654h1.023c.452 0 .823.02 1.115-.076.292-.096.557-.19.796-.415.2-.186.362-.391.486-.616.124-.224.212-.472.264-.742zm-2.251-1.293c.454 0 .756.115.908.284.15.17.187.491.108.903-.083.43-.242.714-.478.897-.236.184-.595.232-1.076.232h-.727l.446-2.316h.819z"/>
</svg>
