<svg xmlns="http://www.w3.org/2000/svg" width="24" height="24" viewBox="0 0 24 24">
    <path fill="#000" fill-rule="nonzero" d="M21.875 14.096c.052.329-.05.63-.266.891a3.328 3.328 0 0 1-.89.73c-.288.17-.588.318-.914.402-.277.07-.557.129-.84.175-.197.032-.4.04-.601.05-.18.007-.36.003-.54 0-.051 0-.076.016-.081.065-.005.053-.014.105-.016.158-.007.174-.007.348-.018.522-.017.249-.041.497-.065.746-.014.153-.028.307-.051.459-.035.23-.063.461-.12.686a10.42 10.42 0 0 1-.26.846c-.117.338-.3.643-.521.926-.39.496-.911.803-1.515.98-.297.088-.6.156-.905.21a2.628 2.628 0 0 1-.589.033c-.472-.024-.91-.152-1.282-.453a2.27 2.27 0 0 1-.656-.85 6.152 6.152 0 0 1-.363-1.054 4.67 4.67 0 0 1-.09-.547c-.033-.266-.058-.533-.083-.8a4.82 4.82 0 0 1-.017-.311l-.018-.683c-.004-.125-.012-.25-.019-.38-.125.04-.245.085-.368.12a2.932 2.932 0 0 1-.719.12c-.126.003-.252.02-.377.013-.517-.029-1.026-.1-1.492-.338a1.37 1.37 0 0 1-.462-.342c-.033-.04-.063-.024-.09-.002-.239.191-.508.319-.81.38a1.73 1.73 0 0 1-.778-.022 2.1 2.1 0 0 1-.856-.468c-.381-.33-.665-.732-.914-1.16a10.206 10.206 0 0 1-.727-1.545c-.144-.386-.29-.772-.417-1.163-.137-.421-.257-.848-.378-1.274a19.19 19.19 0 0 1-.221-.84 52.126 52.126 0 0 1-.26-1.167c-.06-.278-.117-.558-.166-.839-.031-.177-.052-.357-.075-.535-.01-.075.123-.148-.045-.223V6.5c.168-.08.033-.16.045-.239.04-.256.075-.515.132-.767.106-.465.276-.908.523-1.321a3.61 3.61 0 0 1 .892-1.017 4.034 4.034 0 0 1 1.19-.633 5.18 5.18 0 0 1 1.204-.248 9.855 9.855 0 0 1 1.57.031c.273.028.55.057.819.116.431.094.859.206 1.283.326.127.035.224.048.346-.021.285-.164.597-.271.915-.36.38-.105.77-.168 1.163-.172.41-.004.821.025 1.232.045.107.005.213.033.321.043.14.013.276.041.423-.004a6.69 6.69 0 0 1 1.215-.24c.063-.007.125-.038.187-.038h1.721c.091 0 .183.037.274.055.255.05.511.096.762.159.415.103.813.255 1.192.45.333.172.654.365.94.607.2.17.401.34.585.526.229.233.447.478.587.777.107.227.184.462.21.71.021.218.045.436.047.653.001.273-.012.546-.032.819-.048.682-.203 1.347-.383 2.004a15.02 15.02 0 0 1-.702 2.018c-.172.396-.339.795-.534 1.18-.254.501-.534.99-.802 1.485l.003.019c.144-.015.29-.024.434-.045.209-.03.415-.077.624-.103.173-.021.35-.039.523-.031.479.021.89.334.966.813zm-.573.16c.017-.236-.168-.428-.427-.447-.26-.018-.507.052-.76.086-.255.035-.511.071-.768.09-.16.011-.324.001-.484-.016a1.056 1.056 0 0 1-.484-.15c.057-.089.112-.179.17-.266a17.048 17.048 0 0 0 1.328-2.449c.172-.398.342-.797.49-1.204.16-.441.309-.888.435-1.339.154-.547.28-1.1.336-1.667.025-.248.06-.497.062-.746.002-.26-.025-.521-.047-.781a1.74 1.74 0 0 0-.172-.598c-.12-.253-.316-.451-.508-.649-.155-.16-.331-.302-.503-.446a4.418 4.418 0 0 0-.86-.552 5.654 5.654 0 0 0-1.292-.456 6.307 6.307 0 0 0-1.102-.152 8.604 8.604 0 0 0-.882.015 6.696 6.696 0 0 0-.785.082c-.348.061-.69.148-1.035.225-.068.015-.135.06-.2.055-.133-.012-.263-.057-.396-.075-.274-.037-.549-.076-.825-.092a5.87 5.87 0 0 0-.691.015c-.19.011-.38.028-.565.066-.488.101-.946.277-1.366.544-.025.017-.07.017-.102.008-.31-.092-.615-.197-.927-.279a8.33 8.33 0 0 0-1.305-.246c-.205-.02-.41-.056-.616-.06-.47-.01-.941-.013-1.407.075-.314.06-.623.136-.914.263a3.228 3.228 0 0 0-1.587 1.423 3.752 3.752 0 0 0-.43 1.254c-.047.32-.094.64-.112.963-.02.357-.01.716.045 1.072.04.264.07.53.12.792a34.667 34.667 0 0 0 .495 2.174c.12.444.243.89.383 1.329.128.404.276.803.423 1.202.213.577.462 1.139.786 1.666.252.41.53.803.942 1.083.2.135.422.218.664.229.378.017.695-.134.958-.385.177-.169.33-.361.495-.543.166-.183.332-.368.499-.55.226-.25.45-.5.682-.745.139-.147.142-.138.33-.056.221.095.452.16.694.182.08.007.16.016.244.025l-.203.254c-.128.16-.258.322-.463.388-.208.066-.42.12-.632.168-.245.055-.491.103-.717.216-.327.165-.431.506-.214.775.09.113.227.199.358.27.324.173.685.228 1.047.256.22.018.445.003.666-.014.283-.02.555-.094.806-.221.215-.109.417-.24.623-.361v.015c.007.394.01.789.018 1.183.008.321.018.642.033.963.012.252.028.505.05.757.021.227.047.453.083.678.076.473.286.89.597 1.255.326.382.756.593 1.261.637.291.026.588.015.875-.048.406-.088.807-.195 1.173-.399.355-.198.635-.465.832-.816.161-.288.26-.597.325-.916.054-.266.093-.536.134-.805.027-.175.044-.352.068-.527.026-.19.057-.377.081-.566.025-.194.044-.39.069-.584l.08-.614c.02-.16.037-.32.054-.475.173.025.34.062.51.068a6.28 6.28 0 0 0 1.495-.13c.691-.154 1.296-.468 1.778-.987a.637.637 0 0 0 .184-.388zm-3.7-.549l.02.03c-.118.055-.24.098-.346.163-.256.155-.393.394-.445.676-.028.154-.023.313-.037.47-.019.206-.042.412-.064.617-.017.162-.033.323-.052.484-.024.208-.052.416-.078.623l-.054.435-.078.583c-.024.17-.046.342-.071.512-.068.456-.119.915-.283 1.35-.085.225-.21.429-.387.596a1.711 1.711 0 0 1-.661.386c-.252.08-.507.158-.767.206-.384.072-.766.056-1.12-.139a1.33 1.33 0 0 1-.488-.475c-.141-.227-.266-.465-.31-.732a9.103 9.103 0 0 1-.075-.567 29.869 29.869 0 0 1-.067-.804 6 6 0 0 1-.017-.384c-.007-.785-.013-1.57-.016-2.354-.001-.168.017-.337.014-.506a1.145 1.145 0 0 0-.331-.79 1.119 1.119 0 0 0-.581-.321.428.428 0 0 0-.09-.008h-.247c.06-.178.11-.345.175-.506.196-.488.406-.97.594-1.46a2.79 2.79 0 0 0 .182-.844c.019-.34.036-.68.03-1.02-.004-.232-.042-.465-.08-.695-.047-.295-.095-.59-.167-.88-.103-.42-.34-.753-.746-.948a1.659 1.659 0 0 0-.677-.155c-.56-.016-1.082.128-1.585.353l-.149.065-.152.077c.007-.09.008-.17.02-.25.036-.224.071-.45.116-.672.09-.448.22-.883.41-1.302.139-.304.3-.595.502-.865a3.25 3.25 0 0 1 1.959-1.263c.334-.075.675-.09 1.018-.086.402.004.797.056 1.19.14a5.288 5.288 0 0 1 2.056.947c.283.209.542.445.78.7.323.344.612.716.839 1.127.16.292.297.596.444.895l.007.039c-.235 0-.463-.01-.69.002-.366.02-.723.081-1.044.272a1.304 1.304 0 0 0-.631.89c-.05.24-.044.482-.018.725.061.573.255 1.11.501 1.627.196.412.413.815.625 1.219.122.231.264.453.38.687.122.248.243.494.412.714.108.14.22.277.33.416zm-9.68-1.156c.16.37.39.694.688.972l.082.07c-.05.056-.098.112-.149.167-.239.261-.48.52-.718.782-.187.206-.368.416-.556.621-.118.13-.233.265-.368.374-.317.256-.559.22-.87-.013-.248-.185-.43-.427-.59-.681a6.726 6.726 0 0 1-.413-.743 16.082 16.082 0 0 1-.505-1.197c-.183-.497-.352-1-.501-1.509-.157-.53-.288-1.067-.42-1.604a24.518 24.518 0 0 1-.247-1.132c-.054-.278-.088-.56-.137-.839-.067-.375-.06-.753-.045-1.13.017-.428.08-.854.212-1.267.111-.35.266-.679.497-.97a2.61 2.61 0 0 1 .755-.651c.33-.19.687-.305 1.06-.374.218-.041.443-.05.665-.07.09-.008.18-.02.27-.015.291.017.583.034.874.064a9.214 9.214 0 0 1 1.8.386l.053.019c-.18.225-.369.44-.534.67-.242.337-.414.71-.563 1.093a7.333 7.333 0 0 0-.452 2.01c-.026.284-.06.57-.046.854.024.476.057.952.042 1.428-.01.29-.035.58-.065.868-.032.298-.068.596-.047.895.023.319.1.627.228.922zm9.023-7.798a5.818 5.818 0 0 0-1.332-1.12c-.237-.147-.49-.272-.745-.412.239-.03.474-.067.71-.089.261-.024.524-.051.785-.046a6.53 6.53 0 0 1 1.32.15c.445.102.872.25 1.266.474.248.14.48.312.71.48.276.198.5.45.707.712.129.163.18.365.198.566.025.265.04.534.033.8a5.9 5.9 0 0 1-.08.752c-.051.318-.109.637-.184.95a13.968 13.968 0 0 1-.656 2.05c-.175.428-.357.853-.552 1.273-.303.652-.653 1.28-1.046 1.884l-.046.082-.047-.035-.03-.032c.076-.161.156-.317.223-.478A2.4 2.4 0 0 0 18.36 12c.019-.205.037-.41.031-.616-.007-.249-.038-.498-.062-.747-.02-.22-.05-.438-.065-.658a5.39 5.39 0 0 1-.014-.65c.013-.227.056-.452.086-.678.02-.15.044-.3.058-.45.016-.18.014-.363.036-.543.031-.256-.039-.493-.126-.727a6.16 6.16 0 0 0-.803-1.49 10.122 10.122 0 0 0-.556-.69zm-6.491 8.643c-.026.08-.05.161-.075.247a2.085 2.085 0 0 1-1.05-.326c-.513-.332-.826-.803-.974-1.378a2.327 2.327 0 0 1-.067-.56c-.001-.182.038-.363.058-.545.013-.12.03-.238.035-.357.014-.367.03-.733.032-1.1a6.134 6.134 0 0 0-.037-.776c-.015-.121.032-.164.119-.218.43-.265.892-.447 1.397-.524a1.57 1.57 0 0 1 .614.015c.335.08.53.299.608.613.072.29.123.585.168.88a7.14 7.14 0 0 1 .065 1.33 3.715 3.715 0 0 1-.299 1.23c-.213.484-.433.965-.594 1.469zM9.85 8.463c.119.243.319.373.604.35a.526.526 0 0 0 .425-.245c.068-.108.04-.212-.065-.291-.164-.124-.356-.15-.554-.152-.055 0-.11-.004-.165.002-.04.003-.08.017-.117.03-.157.053-.196.168-.128.306zm7.906-.05c-.027.218-.064.436-.083.655-.02.229-.037.46-.032.688.005.225.04.45.062.675.016.161.04.322.05.483.015.265.037.53.03.794-.008.313-.08.617-.227.921-.07-.145-.127-.274-.194-.398-.253-.465-.521-.923-.759-1.395a11.962 11.962 0 0 1-.462-1.077 3.229 3.229 0 0 1-.2-.848 1.447 1.447 0 0 1 .049-.56c.072-.246.248-.395.48-.488.21-.084.43-.12.655-.115.2.003.4.01.601.016.064.002.104.022.094.096-.023.184-.041.369-.064.553zm-.452-.177c.04-.11 0-.193-.113-.224-.078-.021-.16-.03-.213-.039-.2.013-.368.034-.522.117-.134.071-.168.198-.079.304.126.15.294.22.487.188a.531.531 0 0 0 .44-.346zm-5.953 6.173c.162.13.275.29.26.507a.345.345 0 0 1-.058.18c-.218.284-.476.53-.81.684-.243.112-.5.17-.769.192a2.846 2.846 0 0 1-1.085-.132c-.071-.023-.138-.061-.207-.092l.003-.03c.232-.052.463-.103.694-.158.29-.069.58-.141.827-.317.17-.12.294-.283.426-.439.114-.135.228-.272.358-.391.105-.096.25-.091.36-.004zm8.697.087c.14-.015.278-.04.417-.06l.01.018c-.13.086-.26.172-.39.256-.363.234-.772.347-1.195.416-.18.03-.363.041-.545.05a3.728 3.728 0 0 1-.506-.002c-.136-.012-.27-.052-.404-.086-.021-.006-.05-.047-.048-.07.012-.126.022-.254.05-.377.042-.183.183-.269.356-.326a.355.355 0 0 1 .33.039c.196.12.423.171.656.19.139.01.278.036.416.029.285-.016.57-.048.853-.077z"/>
</svg>
