<svg xmlns="http://www.w3.org/2000/svg" width="24" height="24" viewBox="0 0 24 24">
    <path fill="#000" fill-rule="nonzero" d="M9.799 11.673c-1.577 0-2.918 1.36-2.918 2.934v2.133H5.297c-1.35 0-2.14-.984-2.47-2.396-.446-1.898-.427-3.01 0-4.827.37-1.585 1.553-2.42 2.903-2.42h6.404v-.654H7.517V4.675c0-1.377.334-2.124 2.301-2.48A12.64 12.64 0 0 1 12.016 2c.795-.004 1.62.058 2.418.195 1.26.216 2.317 1.187 2.317 2.48v4.543c0 1.333-1.018 2.455-2.31 2.455H9.799zm11.616-2.156c.464 1.918.485 3.332 0 4.827-.47 1.452-.974 2.396-2.324 2.396h-6.954v.653h4.616v1.819c0 1.376-1.136 2.076-2.306 2.424-1.76.525-3.153.444-4.625 0-1.228-.37-2.302-1.131-2.302-2.424v-4.544c0-1.307 1.01-2.505 2.281-2.505h4.642c1.547 0 2.947-1.302 2.947-2.945V7.097h1.7c1.353 0 1.99 1.04 2.325 2.42zM9.006 5.281c.48 0 .872-.405.872-.906 0-.503-.392-.912-.872-.912-.482 0-.872.409-.872.912 0 .5.39.906.872.906zm5.227 13.325c-.48 0-.872.405-.872.906 0 .503.392.912.872.912.482 0 .872-.41.872-.912 0-.501-.39-.906-.872-.906z"/>
</svg>
