<svg xmlns="http://www.w3.org/2000/svg" width="24" height="24" viewBox="0 0 24 24">
    <path fill="#000" fill-rule="nonzero" d="M18.917 8.973C20.914 9.746 22 10.81 22 12s-1.086 2.254-3.083 3.027a11.08 11.08 0 0 1-1.102.37c.096.387.175.773.24 1.143.335 2.11-.033 3.607-1.055 4.202a1.972 1.972 0 0 1-1.022.258c-1.119 0-2.54-.837-3.978-2.238C10.578 20.162 9.157 21 8.022 21c-.383 0-.718-.08-1.022-.258-1.022-.58-1.39-2.077-1.054-4.202.064-.37.143-.756.24-1.143-.384-.113-.751-.241-1.103-.37C3.103 14.254 2 13.19 2 12s1.086-2.254 3.083-3.027a11.08 11.08 0 0 1 1.102-.37 16.261 16.261 0 0 1-.24-1.143C5.61 5.35 5.979 3.853 7 3.258A1.972 1.972 0 0 1 8.022 3c1.119 0 2.54.837 3.978 2.238C13.438 3.838 14.86 3 15.978 3c.383 0 .718.08 1.022.258 1.022.58 1.39 2.077 1.054 4.202-.064.37-.143.756-.24 1.143.384.113.751.241 1.103.37zM17.16 7.331c.271-1.69.048-2.882-.607-3.268a1.073 1.073 0 0 0-.56-.145c-.974 0-2.172.805-3.354 1.98A23.2 23.2 0 0 1 14.3 7.991c.927.08 1.805.21 2.636.403.096-.37.176-.725.224-1.063zm-2.396 6.279c.303-.547.575-1.079.846-1.61a26.01 26.01 0 0 0-.846-1.61 20.31 20.31 0 0 0-.959-1.546 21.372 21.372 0 0 0-1.789-.064c-.607 0-1.198.016-1.79.064-.35.516-.686 1.03-.974 1.546A26.01 26.01 0 0 0 8.406 12c.255.531.543 1.079.846 1.61.288.515.607 1.03.959 1.546.575.048 1.166.064 1.789.064.607 0 1.198-.016 1.79-.064.35-.516.686-1.03.974-1.546zm1.325-.531c-.175.322-.351.66-.543.998-.175.338-.383.66-.575.966a17.43 17.43 0 0 0 1.725-.306 19.09 19.09 0 0 0-.607-1.658zM12 17.442c.383-.419.75-.87 1.102-1.336-.367.016-.735.032-1.102.032-.367 0-.735-.016-1.102-.032.351.466.719.917 1.102 1.336zM7.304 14.72a17.43 17.43 0 0 0 1.725.306c-.192-.322-.384-.628-.575-.982-.192-.322-.368-.66-.543-.982-.24.563-.432 1.127-.607 1.658zm0-5.458c.175.547.367 1.095.607 1.658.175-.322.351-.66.543-.998.175-.338.383-.66.575-.966a17.43 17.43 0 0 0-1.725.306zM12 6.558c-.383.419-.75.87-1.102 1.336.367-.016.735-.032 1.102-.032.367 0 .735.016 1.102.032A18.07 18.07 0 0 0 12 6.558zm2.971 2.415l.575.966c.192.322.368.66.543.998.24-.563.432-1.127.607-1.658a17.43 17.43 0 0 0-1.725-.306zm-8.13-1.642c.063.338.127.692.223 1.063A21.56 21.56 0 0 1 9.7 7.99a21.136 21.136 0 0 1 1.661-2.093c-1.198-1.191-2.396-1.98-3.355-1.98-.207 0-.399.048-.559.145-.655.386-.878 1.577-.607 3.268zM2.894 12c0 .902 1.325 1.868 3.53 2.512.24-.805.575-1.643.958-2.496a23.58 23.58 0 0 1-.958-2.512c-.352.097-.703.21-1.022.339-1.598.595-2.508 1.4-2.508 2.157zm4.552 7.937c.16.097.352.145.56.145.974 0 2.172-.805 3.354-1.98A23.2 23.2 0 0 1 9.7 16.009a18.84 18.84 0 0 1-2.636-.403c-.096.37-.176.725-.224 1.063-.271 1.69-.048 2.882.607 3.268zm9.106 0c.655-.386.878-1.577.607-3.268-.064-.338-.128-.692-.224-1.063-.83.178-1.71.322-2.636.403a21.136 21.136 0 0 1-1.661 2.093c1.198 1.191 2.396 1.98 3.355 1.98.207 0 .399-.048.559-.145zm1.022-5.441c.352-.097.703-.21 1.022-.339 1.582-.595 2.508-1.4 2.508-2.157 0-.902-1.325-1.868-3.53-2.512-.24.805-.575 1.643-.958 2.496.383.853.702 1.707.958 2.512zm-5.511-.644a1.828 1.828 0 0 1-1.821-1.836c0-1.014.815-1.835 1.82-1.835 1.007 0 1.822.821 1.822 1.835a1.828 1.828 0 0 1-1.821 1.836z"/>
</svg>
