<svg xmlns="http://www.w3.org/2000/svg" width="24" height="24" viewBox="0 0 24 24">
    <path fill="#000" fill-rule="nonzero" d="M2 11.255l.014-.29c.047-.199.11-.405.177-.598.227-.658.622-1.217 1.088-1.723.936-1.017 2.076-1.757 3.3-2.37.562-.281 1.14-.536 1.731-.751C9.09 5.238 9.893 5 10.722 5h.687c.685 0 1.35.188 1.964.512.423.222.776.545.998.978.205.4.252.83.208 1.27-.09.898-.512 1.643-1.102 2.303-.71.792-1.593 1.294-2.61 1.578-.712.2-1.435.31-2.175.278-.488-.02-.959-.11-1.38-.38-.219-.139-.418-.302-.554-.526-.055-.09-.087-.194-.122-.294-.02-.06-.01-.12.053-.156.063-.038.107.006.141.046.19.223.428.376.7.477.412.151.838.19 1.273.153a6.273 6.273 0 0 0 1.555-.332c.874-.307 1.65-.77 2.286-1.452.388-.416.696-.882.828-1.446a1.488 1.488 0 0 0-.026-.831c-.095-.28-.298-.458-.546-.594-.324-.178-.677-.262-1.04-.303-.924-.105-1.82.046-2.702.308-.861.256-1.664.644-2.445 1.083a11.23 11.23 0 0 0-1.594 1.06c-.47.382-.899.804-1.213 1.33-.245.411-.382.853-.365 1.336.013.38.151.715.365 1.021.287.413.663.737 1.05 1.048.438.352.88.698 1.314 1.053.142.117.267.253.405.385l.515-.282c.462-.254.924-.507 1.385-.763a.413.413 0 0 0 .12-.105c.357-.456.776-.835 1.32-1.05.13-.05.277-.074.417-.078.3-.01.506.157.587.447.065.233.058.468.026.705l-.014.11.069-.039a.427.427 0 0 1 .538.066c.074.087.074.183.046.287-.083.308-.17.616-.245.927-.09.376-.177.754-.252 1.134-.024.126-.009.26-.01.39 0 .021.01.043.038.075.034-.048.073-.094.1-.146.107-.206.218-.41.313-.62.454-1.011.909-2.022 1.35-3.038.11-.25.176-.52.254-.785.026-.09.072-.145.158-.173a1.85 1.85 0 0 1 .853-.07.441.441 0 0 1 .15.058c.093.054.107.107.076.209-.065.214-.136.426-.19.643-.072.29-.038.582.004.875.038.259.163.48.28.726.046-.075.084-.135.12-.197.334-.57.66-1.144.946-1.74.114-.238.164-.493.235-.743.017-.06.042-.118.054-.179.021-.106.09-.16.186-.187.27-.08.545-.102.824-.062a.454.454 0 0 1 .125.041c.114.054.139.12.103.24-.069.231-.142.462-.198.697-.059.244-.025.49.004.737.039.347.218.636.365.94.017.034.038.067.057.102.144-.058.286-.119.428-.17a4.036 4.036 0 0 1 1.556-.241c.652.027 1.27.195 1.792.605.451.354.761.806.83 1.388.001.011-.007.026-.002.041l.012.26-.01.03c-.051.4-.289.704-.614.93-.13.09-.265.178-.432.179-.03 0-.081-.024-.085-.044a.139.139 0 0 1 .033-.107c.04-.04.093-.065.14-.097.508-.341.652-.853.391-1.393-.213-.441-.574-.722-1.02-.89-.764-.287-1.549-.319-2.342-.137-.153.035-.3.091-.452.138.038.127.074.235.104.345.109.404.085.79-.175 1.136-.388.514-.918.804-1.532.946-.286.067-.525-.123-.564-.416-.025-.188.018-.367.074-.544.13-.409.378-.744.665-1.053.13-.14.273-.268.419-.408-.285-.482-.444-1.013-.55-1.564a.381.381 0 0 0-.048.077 15.64 15.64 0 0 1-1.087 1.848c-.047.067-.045.118-.02.191.058.161.118.324.151.491.125.617-.04 1.137-.553 1.518a2.522 2.522 0 0 1-1.337.504c-.143.01-.292 0-.432-.03a.277.277 0 0 1-.22-.316.592.592 0 0 1 .076-.217 2.95 2.95 0 0 1 .222-.302c.353-.44.706-.879 1.066-1.314.085-.103.093-.184.03-.308a7.062 7.062 0 0 1-.348-.807c-.083-.238-.129-.49-.194-.747l-.045.112c-.276.629-.536 1.265-.833 1.884-.274.571-.585 1.126-.888 1.683-.107.197-.251.37-.429.511-.113.09-.236.161-.39.143-.227-.026-.347-.173-.418-.371a1.865 1.865 0 0 1-.087-.716c.006-.155.02-.31.033-.488l-.03.069c-.17.373-.336.75-.514 1.12a2.56 2.56 0 0 1-.253.4c-.265.358-.858.345-1.107-.011-.307-.44-.454-.934-.487-1.461-.031-.495.055-.98.185-1.456.018-.066.04-.132.06-.197l-.017-.014-1.095.632c.029.066.053.118.074.17.02.054.04.108.056.163.17.592.165 1.187.02 1.781-.199.818-.662 1.456-1.349 1.931a3 3 0 0 1-1.46.536H3.9c-.17-.031-.342-.058-.51-.097a.557.557 0 0 1-.186-.096 1.109 1.109 0 0 1-.377-.488c-.276-.667-.145-1.292.225-1.879.23-.364.557-.643.894-.906.559-.436 1.166-.795 1.796-1.116.067-.034.13-.07.207-.112-.09-.071-.167-.139-.249-.197-.478-.34-.963-.676-1.44-1.02-.548-.395-1.084-.816-1.521-1.338-.307-.367-.566-.77-.687-1.238-.018-.072-.051-.146-.051-.258zm4.448 5.463a2.605 2.605 0 0 0-.095-.88l-.038.017c-.514.301-1.015.62-1.477.997-.293.24-.568.496-.755.832-.143.258-.248.529-.242.828.004.188.048.365.246.45.14.06.286.054.43.03a2.048 2.048 0 0 0 1.03-.516c.526-.468.848-1.045.901-1.758zm4.008-3.095c.022-.136-.06-.2-.196-.16a.997.997 0 0 0-.254.112c-.254.158-.42.397-.573.647-.37.608-.59 1.26-.595 1.978.006.101.001.205.02.303.029.147.062.295.116.434.047.12.134.124.226.033a.27.27 0 0 0 .045-.053c.075-.128.16-.252.219-.387.318-.73.612-1.469.841-2.232.067-.22.114-.448.151-.675zm2.734 3.493c.3.13 1.024-.723.983-1.15l-.983 1.15zm3.139-.774c.448-.258.648-.79.475-1.275l-.025.013a2.478 2.478 0 0 0-.74 1.196.382.382 0 0 0-.015.115c.002.056.023.09.088.056.072-.037.147-.065.217-.105z"/>
</svg>
