<svg width="24" height="24" viewBox="0 0 24 24" fill="#000" xmlns="http://www.w3.org/2000/svg">
<path d="M20.1884 3.04153C19.9071 3.71332 19.5503 4.35126 19.1205 4.93712C17.2399 3.05715 14.6873 2 12.028 2C6.52692 2 2 6.53066 2 12.0378C2 14.7848 3.12522 17.4147 5.11518 19.3102L5.48505 19.6383C7.29269 21.1616 9.58219 22 11.9446 22C17.1748 22 21.5715 17.9016 21.944 12.6783C22.2174 10.1213 21.4673 6.88738 20.1884 3.04153ZM6.53994 19.3675C6.37845 19.568 6.13101 19.6852 5.87314 19.6852C5.4017 19.6852 5.01621 19.2972 5.01621 18.8259C5.01621 18.3546 5.4043 17.9667 5.87314 17.9667C6.06849 17.9667 6.26124 18.0344 6.41231 18.1594C6.77957 18.4562 6.83687 19.0004 6.53994 19.3675ZM20.1467 16.3627C17.6723 19.6618 12.3874 18.5499 8.99875 18.7088C8.99875 18.7088 8.39707 18.7452 7.79279 18.8442C7.79279 18.8442 8.01939 18.7478 8.31372 18.6359C10.6918 17.8078 11.817 17.6464 13.2626 16.9043C15.9845 15.5191 18.6751 12.4882 19.2351 9.33498C18.1984 12.3684 15.0572 14.9749 12.1947 16.0346C10.2334 16.7585 6.69101 17.4615 6.69101 17.4615L6.54775 17.386C4.13583 16.2117 4.0629 10.9858 8.44656 9.29853C10.3662 8.55904 12.2025 8.96524 14.2758 8.47051C16.4898 7.94454 19.0502 6.2833 20.092 4.11691C21.2589 7.58261 22.6628 13.009 20.1467 16.3627V16.3627Z" fill="#000"/>
</svg>
