<svg xmlns="http://www.w3.org/2000/svg" width="24" height="24" viewBox="0 0 24 24">
    <path fill="#000" fill-rule="nonzero" d="M16.086 18.755c-2.356 1.366-5.595 1.507-8.854.104C4.593 17.732 2.404 15.758 1 13.503c.674.563 1.46 1.015 2.302 1.41 3.365 1.583 6.73 1.475 9.098.003l-.003-.004c-3.369-2.594-6.232-5.977-8.365-8.74-.45-.45-.786-1.014-1.123-1.522 2.582 2.368 6.68 5.356 8.14 6.203-3.087-3.271-5.838-7.33-5.726-7.218 4.884 4.962 9.432 7.781 9.432 7.781.15.086.266.157.36.22.098-.252.184-.513.257-.783.786-2.876-.112-6.147-2.077-8.853 4.547 2.763 7.242 7.95 6.119 12.292-.03.117-.061.233-.095.346l.039.049c2.245 2.82 1.628 5.808 1.347 5.244-1.218-2.394-3.473-1.662-4.62-1.176z"/>
</svg>
