<svg xmlns="http://www.w3.org/2000/svg" width="24" height="24" viewBox="0 0 24 24">
    <path fill="#000" fill-rule="nonzero" d="M3 12V3h18v18H3v-9zm14.505-.72v.003a4.559 4.559 0 0 0-1.366-.038c-.983.186-1.655.813-1.847 1.71a3.6 3.6 0 0 0 .032 1.152c.097.332.266.64.494.9.366.394.766.642 1.695 1.042.805.352 1.093.52 1.237.72a.782.782 0 0 1-.1.997c-.388.35-1.174.391-1.75.089-.269-.17-.5-.393-.683-.654l-.108-.16-.517.3-.667.369a1.345 1.345 0 0 0-.165.105c-.02.034.302.51.468.694.493.505 1.135.84 1.831.955.455.061.915.066 1.371.014.998-.169 1.704-.677 1.992-1.426.259-.688.174-1.618-.209-2.194-.343-.52-.894-.886-2.183-1.44-.7-.303-.923-.451-1.043-.7a.66.66 0 0 1-.077-.337c-.003-.47.348-.757.894-.72.35.013.67.205.845.508.076.114.146.189.163.177.474-.293 1.251-.819 1.251-.842a2.964 2.964 0 0 0-.432-.576 2.24 2.24 0 0 0-1.126-.648zm-4.225.755l-.008-.742h-3.144c-1.728 0-3.156 0-3.168.013a7.083 7.083 0 0 0-.017.744v.72h2.343v6.659h1.657v-6.657h2.337v-.737z"/>
</svg>
