<?xml version="1.0" standalone="no"?>
<!DOCTYPE svg PUBLIC "-//W3C//DTD SVG 20010904//EN"
 "http://www.w3.org/TR/2001/REC-SVG-20010904/DTD/svg10.dtd">
<svg version="1.0" xmlns="http://www.w3.org/2000/svg"
 width="1054.000000pt" height="1600.000000pt" viewBox="0 0 1054.000000 1600.000000"
 preserveAspectRatio="xMidYMid meet">

<g transform="translate(0.000000,1600.000000) scale(0.100000,-0.100000)"
fill="#000000" stroke="none">
<path d="M5200 13519 c-25 -5 -81 -20 -125 -33 -44 -13 -98 -29 -120 -35 -50
-13 -340 -168 -460 -245 -49 -32 -155 -99 -235 -149 -228 -144 -284 -189 -371
-302 -75 -97 -124 -174 -173 -273 -59 -117 -70 -152 -106 -318 -24 -109 -30
-158 -30 -262 0 -70 -5 -178 -10 -241 -7 -80 -7 -131 0 -170 6 -31 15 -105 20
-166 5 -60 15 -126 23 -145 8 -19 19 -69 26 -110 7 -41 19 -102 26 -135 21
-91 28 -160 21 -198 -8 -42 -47 -63 -102 -54 -37 6 -94 -14 -94 -32 0 -5 -15
-18 -34 -29 -30 -18 -35 -27 -45 -84 -21 -124 -8 -368 21 -368 4 0 5 -26 2
-57 -3 -36 1 -90 11 -143 10 -47 19 -103 22 -125 10 -89 95 -223 212 -335 43
-41 86 -88 94 -105 12 -25 14 -68 10 -254 -4 -194 3 -353 23 -508 11 -91 56
-208 110 -290 19 -29 42 -69 50 -89 8 -20 53 -73 99 -117 107 -106 118 -130
117 -274 0 -135 -17 -223 -42 -223 -10 0 -34 -18 -54 -40 -34 -38 -36 -43 -36
-113 1 -167 44 -287 161 -449 27 -37 49 -70 49 -74 0 -3 13 -23 29 -43 53 -67
137 -196 160 -243 13 -27 26 -48 31 -48 4 0 36 -23 71 -51 35 -28 89 -67 119
-87 30 -19 68 -45 83 -58 16 -13 36 -24 46 -24 10 0 23 -10 30 -22 15 -28 157
-133 190 -141 18 -4 21 -3 12 6 -14 14 -15 57 -1 57 15 0 12 36 -5 50 -19 16
-19 30 0 30 8 0 15 7 15 15 0 8 -6 15 -12 15 -10 0 -10 2 0 9 11 6 8 13 -12
29 -19 15 -26 29 -26 56 0 20 5 36 11 36 8 0 10 17 6 55 -5 47 -3 55 14 60 10
4 19 13 19 21 0 8 8 18 18 21 9 4 28 18 42 32 20 21 33 25 63 23 28 -2 37 0
37 12 0 19 6 19 123 16 81 -2 89 0 109 21 56 64 58 83 10 94 -33 7 -116 99
-109 120 3 7 -1 19 -8 25 -11 9 -12 17 -5 30 6 10 7 25 4 33 -3 8 -1 18 4 21
13 8 130 -18 144 -32 7 -7 19 -12 27 -12 9 0 29 -10 45 -23 25 -20 27 -26 17
-45 -14 -26 0 -37 28 -22 36 19 89 12 113 -15 12 -14 30 -25 40 -25 10 0 18
-3 18 -8 0 -4 18 -6 40 -4 26 3 40 9 40 18 0 8 18 21 40 30 22 9 40 20 40 25
0 5 7 9 15 9 8 0 15 8 15 18 1 9 7 28 14 41 13 24 14 24 20 4 4 -11 2 -32 -4
-47 -7 -19 -7 -33 1 -47 18 -34 48 -17 146 84 14 15 33 27 42 27 15 0 41 41
41 64 0 5 7 18 16 27 16 17 15 19 -10 28 -29 12 -34 32 -11 51 11 9 18 10 29
1 11 -9 15 -5 20 24 7 33 19 54 54 90 18 20 16 56 -3 49 -11 -5 -13 -2 -9 10
3 9 10 16 15 16 5 0 9 7 9 16 0 13 -7 15 -36 9 -24 -4 -34 -3 -29 4 3 6 15 11
26 11 10 0 27 9 36 20 23 27 73 27 80 0 6 -23 23 -27 23 -5 0 20 17 19 28 -1
6 -10 12 -13 16 -6 3 5 14 8 24 5 10 -2 28 5 41 16 13 12 30 21 38 21 7 0 13
6 13 14 0 8 -8 15 -17 15 -44 -1 -91 30 -78 51 9 15 26 12 41 -7 10 -15 15
-16 25 -5 10 9 10 15 1 24 -17 17 -15 38 4 38 9 0 18 9 21 20 3 11 17 23 32
26 85 19 82 17 102 73 27 79 43 98 109 131 70 35 176 132 219 198 29 46 93
211 127 327 9 33 20 65 24 70 24 34 61 372 64 585 2 134 2 135 33 180 30 44
67 165 56 183 -6 10 17 67 28 67 4 0 10 8 14 19 3 10 26 26 52 36 26 10 65 37
88 59 38 38 42 48 53 123 10 65 10 91 1 123 -13 43 -44 74 -63 63 -6 -4 -5 1
3 10 21 26 -16 76 -81 107 -51 24 -53 27 -52 63 1 25 -3 37 -12 37 -20 0 -27
44 -20 121 6 68 26 109 53 109 21 0 83 41 83 56 0 7 -18 18 -39 24 -23 6 -51
24 -66 42 -30 36 -30 53 -1 213 9 44 15 102 16 129 0 27 6 83 14 125 8 42 24
162 36 266 17 151 30 219 63 330 l42 140 -1 200 c-1 227 -8 264 -76 404 -47
96 -96 149 -212 230 -43 29 -86 67 -96 83 -9 16 -23 64 -29 106 -18 116 -29
149 -62 187 -56 63 -244 175 -542 322 -86 42 -113 52 -307 108 -52 15 -106 31
-120 36 -14 4 -70 15 -125 25 -55 9 -131 25 -170 35 -38 10 -110 23 -160 29
-108 12 -392 11 -455 -1z m1375 -748 c22 -7 50 -15 62 -18 12 -3 28 -11 34
-19 6 -8 21 -14 33 -14 11 0 30 -7 40 -15 11 -8 25 -15 32 -15 17 0 116 -68
132 -91 7 -10 24 -19 38 -19 25 0 52 -23 102 -86 41 -52 83 -142 134 -289 14
-40 37 -198 31 -209 -3 -4 -6 -64 -7 -132 -1 -96 2 -125 13 -129 10 -4 10 -9
2 -19 -8 -10 -8 -16 3 -25 8 -7 15 -39 18 -79 3 -39 14 -84 25 -107 11 -22 23
-71 27 -108 3 -37 10 -76 15 -85 5 -10 17 -58 26 -108 17 -90 16 -161 -5 -269
-55 -282 -66 -418 -45 -553 9 -58 27 -135 40 -171 38 -105 55 -189 56 -286 l1
-90 10 65 c14 98 49 124 102 75 36 -33 34 -74 -10 -160 -49 -99 -111 -134
-115 -65 -1 30 -50 -115 -70 -209 -12 -53 -29 -108 -40 -123 -10 -15 -19 -34
-19 -43 0 -8 -4 -15 -10 -15 -5 0 -10 -13 -10 -29 0 -16 -7 -34 -16 -42 -22
-18 -46 -68 -41 -83 8 -20 -10 -41 -36 -43 -13 -1 -41 -13 -62 -27 -21 -14
-42 -26 -46 -26 -5 0 -9 -10 -9 -23 0 -17 -5 -22 -23 -22 -13 1 -28 4 -34 8
-6 4 -31 -20 -57 -53 -26 -33 -51 -60 -56 -60 -14 0 -90 -72 -90 -86 0 -20
-21 -28 -31 -13 -7 12 -9 12 -9 0 0 -13 -52 -86 -75 -106 -20 -17 -48 -84 -41
-100 3 -9 0 -15 -8 -15 -8 0 -16 9 -19 20 -3 11 -12 20 -21 20 -21 0 -21 -19
0 -27 14 -5 14 -7 1 -15 -22 -12 -39 -2 -68 40 -35 51 -46 108 -34 173 8 39
-21 189 -36 189 -5 0 -9 7 -9 15 0 8 -3 15 -7 15 -5 0 -23 14 -42 30 -18 17
-45 30 -58 30 -14 0 -39 7 -56 16 -57 30 -65 33 -71 27 -10 -10 -69 -11 -93
-2 -13 5 -23 15 -23 23 0 9 -6 13 -13 11 -7 -3 -27 8 -44 24 -27 24 -33 26
-38 12 -6 -14 -8 -14 -20 3 -8 10 -18 15 -24 11 -6 -3 -16 6 -23 20 -7 16 -14
21 -19 14 -4 -8 -9 -5 -13 7 -6 21 -49 46 -111 65 -75 23 -88 72 -24 89 50 14
66 8 79 -25 10 -28 33 -31 89 -15 45 13 111 59 111 77 0 11 -6 12 -22 6 -42
-14 -96 -4 -148 28 -47 29 -57 31 -115 27 -55 -5 -70 -11 -106 -42 -39 -33
-60 -41 -99 -38 -8 1 -34 2 -57 3 -32 2 -49 9 -70 31 -55 57 -88 71 -151 63
-104 -13 -127 -13 -169 4 -35 13 -45 23 -56 56 -26 77 -11 136 48 190 18 17
36 41 40 55 4 14 14 33 23 43 8 9 12 20 8 24 -10 10 44 62 59 57 17 -7 27 10
19 30 -4 11 -19 16 -52 16 -41 0 -50 -5 -89 -45 -24 -25 -43 -52 -43 -60 0 -8
-6 -15 -13 -15 -7 0 -13 -9 -14 -21 -1 -11 -8 -27 -15 -36 -6 -8 -13 -22 -14
-30 -1 -7 -8 -21 -16 -30 -12 -15 -16 -37 -19 -123 -4 -72 2 -101 21 -120 11
-11 20 -22 20 -25 0 -18 106 -96 154 -115 34 -12 36 -50 4 -50 -14 0 -33 -14
-48 -35 -14 -19 -29 -34 -35 -33 -27 2 -37 -3 -31 -17 3 -9 -1 -16 -9 -16 -69
-6 -116 -14 -170 -28 -22 -5 -50 -8 -62 -5 -12 3 -28 2 -35 -2 -7 -5 -25 -7
-39 -6 -17 2 -29 -3 -32 -12 -4 -9 -13 -16 -22 -16 -8 0 -15 -5 -15 -11 0 -7
-11 -9 -29 -6 -24 5 -33 1 -49 -20 -17 -23 -22 -25 -35 -15 -10 9 -17 10 -22
2 -3 -5 -35 -10 -70 -10 -56 0 -66 3 -83 25 -14 17 -22 21 -25 13 -8 -20 -26
10 -20 33 6 21 -45 79 -80 92 -13 5 -16 13 -12 27 4 14 1 22 -12 27 -10 4 -21
11 -25 17 -5 7 -8 4 -8 -6 0 -27 -36 -22 -65 9 -24 27 -25 27 -25 5 0 -38 -18
-24 -25 21 -10 62 -27 117 -37 117 -4 0 -8 -7 -8 -15 0 -18 -1 -18 -37 -4 -19
7 -23 13 -15 18 18 11 -23 62 -44 54 -15 -5 -15 -7 0 -15 9 -5 16 -20 16 -33
0 -27 -15 -34 -23 -11 -6 16 -55 27 -63 15 -16 -27 -31 -3 -42 69 -7 42 -17
91 -21 107 -5 17 -14 55 -21 85 -6 30 -16 71 -20 90 -34 138 -20 252 51 405
54 117 66 346 34 635 -18 165 -21 313 -7 401 9 62 29 103 81 171 12 14 21 36
21 47 0 12 10 29 21 39 43 35 48 43 54 97 7 56 21 69 45 40 6 -8 9 -19 5 -25
-3 -5 -2 -10 3 -10 17 0 28 45 24 96 -3 45 -6 51 -23 47 -10 -3 -19 0 -19 6 0
6 6 11 14 11 14 0 26 21 26 46 0 10 -6 13 -19 9 -26 -8 -43 18 -43 65 0 22 -3
40 -9 40 -5 0 -9 9 -9 20 0 10 -5 30 -11 43 -8 18 -8 40 2 83 7 33 11 73 10
89 -3 54 125 280 177 312 15 9 37 27 48 41 16 17 35 26 70 29 27 3 54 12 60
19 6 8 47 21 90 30 99 19 188 12 252 -21 26 -13 68 -31 94 -41 26 -9 53 -23
59 -30 14 -17 120 -19 137 -2 15 15 163 38 181 28 16 -9 51 -2 51 11 0 4 19 7
43 7 62 -2 167 13 161 23 -5 9 17 13 44 10 8 -1 19 2 25 8 7 5 65 13 130 17
65 3 120 11 123 15 3 5 16 9 30 9 13 0 32 4 42 9 18 10 123 29 322 59 134 20
393 22 455 3z m-2985 -2316 c0 -8 5 -15 10 -15 6 0 13 -7 16 -15 4 -10 -18
-39 -65 -84 -39 -38 -71 -76 -71 -84 0 -26 -22 -67 -37 -67 -19 0 -16 40 11
125 24 75 60 125 92 125 8 0 17 7 20 15 4 8 10 15 15 15 5 0 9 -7 9 -15z m90
-424 c0 -50 -14 -111 -25 -111 -25 0 -34 74 -15 111 14 24 40 25 40 0z m-13
-336 c17 -37 15 -49 -8 -40 -13 5 -39 49 -39 67 0 22 32 4 47 -27z m207 -211
c15 -14 22 -44 11 -44 -11 0 -45 35 -45 47 0 18 15 16 34 -3z m1744 -60 c32
-22 29 -59 -8 -76 -16 -7 -30 -19 -30 -25 0 -7 -7 -13 -15 -13 -8 0 -15 -6
-15 -14 0 -8 -7 -16 -15 -20 -9 -3 -15 -18 -15 -39 0 -19 -3 -37 -7 -40 -8 -8
-33 39 -33 63 0 10 -9 22 -20 25 -21 7 -37 46 -25 64 4 7 22 9 46 5 31 -5 39
-3 39 9 0 14 57 77 70 77 3 0 16 -7 28 -16z m-1378 -178 c0 -8 3 -22 7 -31 5
-16 4 -15 -15 1 -25 21 -29 44 -7 44 8 0 15 -6 15 -14z m1320 -170 c58 -1 111
-5 118 -9 7 -5 12 -4 12 2 0 17 32 13 78 -9 22 -11 52 -20 65 -20 13 0 36 -11
51 -25 15 -14 33 -25 40 -25 8 0 19 -7 26 -15 11 -13 7 -15 -23 -15 -20 0 -39
5 -42 10 -3 6 -25 10 -49 10 -23 0 -47 5 -52 10 -17 17 -112 21 -118 5 -3 -8
-23 -18 -46 -21 -29 -5 -40 -11 -40 -25 0 -30 -38 -34 -68 -7 -15 12 -29 26
-32 29 -3 3 -30 19 -60 35 -30 16 -57 31 -60 34 -3 3 -16 11 -29 19 -21 11
-26 11 -35 -1 -10 -14 -13 -14 -25 -1 -25 27 6 35 99 27 47 -4 132 -8 190 -8z
m-402 -23 c2 -8 -6 -13 -22 -13 -25 0 -33 10 -19 24 10 10 36 3 41 -11z m910
-93 c2 0 2 -10 0 -22 -3 -26 -27 -26 -66 -2 -33 21 -9 45 33 33 16 -5 31 -9
33 -9z m-404 -14 c10 4 16 1 16 -9 0 -9 3 -24 6 -34 5 -13 2 -12 -10 5 -10 12
-26 22 -37 22 -11 0 -19 7 -19 16 0 13 3 14 14 5 7 -6 21 -9 30 -5z m461 -36
c3 -5 -1 -10 -9 -10 -9 0 -16 5 -16 10 0 6 4 10 9 10 6 0 13 -4 16 -10z m-353
-16 c-13 -9 -30 -13 -38 -10 -24 9 -6 26 29 26 l31 0 -22 -16z m1013 -23 c3
-5 1 -12 -5 -16 -5 -3 -10 1 -10 9 0 18 6 21 15 7z m-1603 -44 c11 -12 16 -12
28 1 11 12 32 14 119 8 142 -9 319 -24 356 -30 17 -3 86 -10 155 -17 71 -6
129 -17 135 -24 22 -26 52 -35 86 -24 19 5 56 7 82 3 26 -3 53 -2 60 3 7 5 28
9 47 9 33 -1 36 -4 46 -45 12 -50 54 -91 94 -91 19 0 29 8 39 33 13 29 14 30
18 9 3 -12 18 -32 34 -44 28 -21 40 -58 18 -58 -8 0 -7 -6 2 -17 13 -15 11
-16 -13 -9 -17 4 -28 2 -28 -4 0 -5 5 -10 10 -10 6 0 10 -4 10 -9 0 -5 -18
-12 -39 -16 -22 -4 -45 -13 -52 -21 -6 -8 -24 -14 -40 -14 -18 0 -29 -5 -29
-14 0 -16 -41 -29 -66 -19 -10 4 -21 0 -29 -10 -10 -14 -14 -12 -29 14 -12 20
-23 28 -33 25 -8 -3 -28 -6 -44 -6 -19 0 -29 -5 -29 -15 0 -9 -9 -15 -23 -15
-18 0 -28 -10 -41 -38 -10 -21 -16 -42 -15 -48 1 -5 -1 -21 -5 -36 -6 -21 -15
-28 -32 -28 -25 0 -34 -25 -12 -32 7 -3 9 -14 5 -29 -13 -48 -22 -53 -69 -43
-39 8 -43 12 -40 37 4 34 -15 36 -24 2 -7 -26 -18 -32 -30 -14 -4 8 -9 8 -17
0 -16 -16 -37 -14 -37 4 0 8 -9 19 -20 25 -16 8 -22 7 -31 -8 -11 -17 -13 -16
-45 12 -37 32 -43 53 -19 62 9 4 22 18 30 33 13 24 14 24 15 4 0 -12 -5 -23
-12 -25 -9 -3 -9 -6 0 -12 7 -4 17 6 26 27 18 44 36 55 43 28 6 -24 23 -28 23
-6 0 8 8 23 18 33 12 12 17 33 17 69 0 41 -5 58 -29 88 -26 33 -31 35 -42 21
-10 -15 -13 -15 -27 -2 -8 8 -17 13 -19 11 -3 -3 -29 -1 -59 5 -30 5 -130 19
-222 30 -123 16 -184 29 -225 47 l-57 25 23 18 c27 22 20 54 -10 47 -12 -3
-22 1 -25 10 -3 8 -13 13 -24 10 -27 -7 -32 8 -14 43 10 20 23 30 38 30 12 0
29 5 37 10 20 13 26 12 42 -3z m-484 -25 c-1 -9 1 -23 5 -29 13 -21 -21 -15
-42 6 -21 21 -13 36 19 38 15 1 20 -3 18 -15z m407 -112 c3 -5 1 -10 -4 -10
-6 0 -11 5 -11 10 0 6 2 10 4 10 3 0 8 -4 11 -10z m-260 -50 c0 -39 14 -53 46
-46 22 4 31 1 40 -15 6 -12 17 -18 25 -15 7 3 18 -3 24 -14 6 -11 24 -27 40
-35 16 -8 32 -26 36 -40 3 -13 12 -29 20 -36 10 -8 11 -15 4 -24 -8 -9 -4 -14
12 -20 13 -4 27 -7 31 -6 5 1 5 -9 1 -21 -4 -13 -8 -31 -8 -40 0 -10 -4 -18
-8 -18 -4 0 -14 -15 -22 -34 -16 -37 -64 -56 -79 -30 -4 8 -15 14 -24 14 -23
0 -102 53 -103 69 0 8 -3 11 -7 8 -10 -10 -32 13 -27 27 7 17 -22 40 -41 32
-14 -5 -14 -2 1 23 14 23 15 33 6 44 -7 8 -9 17 -5 20 3 4 8 22 10 40 2 25 -2
36 -21 50 -23 18 -24 19 -8 58 12 31 20 39 36 37 15 -2 21 -10 21 -28z m-688
-1037 c-3 -10 -5 -4 -5 12 0 17 2 24 5 18 2 -7 2 -21 0 -30z m2323 -2 c18 -5
21 -8 10 -12 -8 -3 -26 0 -40 8 -26 13 -12 16 30 4z m-240 -166 c0 -15 -6 -25
-14 -25 -11 0 -12 5 -3 25 15 31 17 31 17 0z m-35 -85 c-3 -5 -12 -10 -20 -10
-8 0 -17 5 -20 10 -4 6 5 10 20 10 15 0 24 -4 20 -10z m-48 -16 c-3 -3 -12 -4
-19 -1 -8 3 -5 6 6 6 11 1 17 -2 13 -5z m-1 -182 c-4 -3 -12 0 -19 7 -9 9 -9
14 3 21 11 7 16 5 18 -6 2 -9 1 -18 -2 -22z m-1571 -102 c3 -5 -1 -10 -9 -10
-9 0 -16 5 -16 10 0 6 4 10 9 10 6 0 13 -4 16 -10z m-25 -110 c0 -24 0 -24 44
-3 33 15 37 15 54 0 10 -9 26 -17 35 -17 25 0 67 -40 67 -64 0 -12 7 -30 15
-40 8 -11 15 -37 15 -58 l0 -38 45 0 c38 0 45 -3 45 -20 0 -12 10 -25 25 -32
27 -12 29 -16 16 -37 -10 -16 -69 -17 -84 -2 -18 18 -37 12 -37 -10 0 -14 -5
-19 -15 -16 -8 4 -22 -4 -32 -18 -16 -22 -22 -24 -53 -15 -50 14 -58 22 -64
55 -13 73 -20 89 -48 114 -20 18 -30 37 -32 61 -1 19 -10 52 -19 73 -13 30
-14 43 -5 62 14 30 28 33 28 5z m272 -392 c7 -13 11 -26 11 -29 -1 -4 10 -9
25 -13 56 -12 81 -56 31 -56 -10 0 -19 -4 -19 -9 0 -14 -61 19 -94 51 -16 15
-38 30 -48 34 -34 10 -18 24 22 19 31 -4 40 -2 40 10 0 22 18 18 32 -7z"/>
<path d="M4080 11836 c0 -2 7 -7 16 -10 8 -3 12 -2 9 4 -6 10 -25 14 -25 6z"/>
<path d="M4181 11694 c0 -11 3 -14 6 -6 3 7 2 16 -1 19 -3 4 -6 -2 -5 -13z"/>
<path d="M4260 11592 c0 -10 43 -52 53 -52 4 0 7 9 7 20 0 13 7 20 20 20 11 0
20 5 20 10 0 6 -22 10 -50 10 -27 0 -50 -4 -50 -8z"/>
<path d="M4325 11523 c-16 -3 -35 -13 -43 -24 -7 -10 -20 -19 -28 -19 -8 0
-14 -4 -14 -10 0 -13 63 -13 93 1 17 8 24 19 23 35 0 13 -1 23 -1 22 0 0 -13
-3 -30 -5z"/>
<path d="M4190 11419 c-14 -25 -8 -33 19 -24 24 7 29 45 6 45 -8 0 -19 -9 -25
-21z"/>
<path d="M4240 11424 c0 -14 3 -14 15 -4 8 7 15 14 15 16 0 2 -7 4 -15 4 -8 0
-15 -7 -15 -16z"/>
<path d="M4455 11423 c-49 -7 -115 -35 -115 -49 0 -8 -7 -14 -16 -14 -19 0
-185 -80 -199 -97 -62 -72 -80 -97 -91 -130 -8 -21 -9 -39 -4 -41 5 -2 7 -9 4
-17 -3 -7 -1 -16 5 -20 17 -10 13 -25 -8 -25 -20 0 -51 -39 -51 -63 0 -8 -7
-20 -15 -27 -9 -8 -13 -22 -9 -39 3 -14 7 -36 10 -47 3 -16 15 -25 41 -31 30
-7 37 -13 40 -37 2 -16 -3 -36 -11 -45 -13 -14 -14 -31 -8 -91 l7 -74 35 -9
c19 -5 40 -13 47 -19 7 -5 24 -11 38 -12 14 -2 27 -5 28 -7 6 -9 27 -101 27
-119 0 -23 26 -39 52 -32 10 2 36 -7 59 -23 24 -15 49 -25 60 -22 10 3 19 2
19 -3 0 -17 72 -40 144 -47 62 -5 84 -3 116 12 35 16 45 17 80 5 45 -15 68 -4
56 25 -5 13 -13 16 -34 10 -49 -13 -144 -17 -166 -7 -25 11 -80 30 -122 43
-17 5 -54 31 -83 58 l-52 49 28 5 c15 3 30 2 33 -3 3 -4 38 -10 79 -12 40 -3
77 -11 81 -17 5 -9 23 -9 76 2 39 8 98 12 135 9 37 -2 74 0 83 5 10 6 49 4
104 -4 107 -17 159 -32 166 -48 7 -19 -16 -55 -67 -107 -47 -47 -58 -68 -34
-68 6 -1 26 -19 42 -40 17 -22 37 -39 45 -39 31 2 40 -1 40 -15 0 -19 40 -32
50 -17 3 7 29 20 56 29 48 17 50 19 99 118 28 55 64 118 82 140 l31 39 -24 55
c-13 30 -23 63 -24 73 0 9 -4 25 -9 35 -6 9 -18 44 -27 77 -9 33 -23 67 -29
75 -22 29 -54 103 -48 113 3 6 -1 15 -9 21 -8 6 -23 52 -33 104 -14 72 -22 95
-38 104 -11 6 -30 20 -41 30 -24 23 -87 52 -146 68 -22 6 -40 15 -40 19 0 13
-68 51 -92 51 -18 0 -19 2 -7 17 12 15 12 16 -8 11 -13 -4 -27 0 -34 8 -6 8
-20 14 -30 14 -11 0 -28 9 -39 20 -14 14 -28 18 -45 14 -15 -4 -34 0 -49 9
-43 28 -184 57 -241 50z m305 -468 c0 -16 -39 -1 -50 19 -7 13 -22 27 -33 30
-17 4 -18 7 -7 20 11 14 17 11 51 -24 22 -22 39 -42 39 -45z m-102 35 c16 -26
8 -40 -23 -40 -31 0 -41 17 -16 25 12 4 18 12 14 21 -8 21 10 17 25 -6z m222
-139 c0 -5 -5 -11 -11 -13 -5 -2 -7 -11 -3 -21 4 -11 13 -16 23 -12 22 7 152
-110 144 -130 -8 -22 -27 -19 -118 24 -103 49 -167 71 -205 71 -16 0 -31 4
-34 9 -10 15 16 27 83 39 36 6 67 15 70 20 11 17 51 27 51 13z m-340 -217 c0
-34 11 -62 39 -97 21 -26 8 -31 -48 -17 -55 13 -120 56 -121 80 0 25 100 85
123 73 4 -2 7 -20 7 -39z m172 31 c0 -5 -5 -11 -11 -13 -6 -2 -11 4 -11 13 0
9 5 15 11 13 6 -2 11 -8 11 -13z m358 -28 c0 -18 -2 -19 -10 -7 -13 20 -13 43
0 35 6 -3 10 -16 10 -28z m-295 -17 c0 -27 -22 -39 -31 -16 -8 22 3 49 19 43
6 -2 12 -14 12 -27z m210 -29 c55 -44 62 -55 47 -79 -8 -12 -201 -24 -229 -14
-7 2 0 21 22 50 18 26 36 59 40 73 6 23 10 25 36 20 16 -3 54 -26 84 -50z"/>
<path d="M4120 11345 c0 -8 5 -15 10 -15 6 0 10 7 10 15 0 8 -4 15 -10 15 -5
0 -10 -7 -10 -15z"/>
<path d="M6592 11345 c-7 -8 -30 -15 -51 -15 -21 0 -41 -3 -45 -7 -7 -8 -56
-21 -156 -44 -46 -11 -96 -30 -141 -54 -14 -8 -50 -17 -80 -21 -29 -3 -76 -17
-104 -29 -27 -13 -60 -26 -71 -29 -12 -4 -24 -17 -27 -29 -2 -12 -8 -31 -12
-41 -6 -14 -5 -17 3 -12 15 9 15 -9 1 -36 -8 -15 -8 -22 0 -27 6 -4 10 -18 9
-31 -3 -19 2 -23 24 -24 15 -1 33 -7 39 -13 7 -7 20 -8 38 -2 40 14 85 -2 89
-32 2 -13 10 -28 18 -32 21 -12 17 -25 -8 -29 -14 -2 -24 -12 -28 -28 -4 -18
-14 -26 -35 -30 -20 -3 -31 -12 -33 -25 -4 -26 -30 -83 -41 -89 -13 -8 0 -100
15 -109 20 -12 17 -26 -12 -69 -37 -53 -28 -65 46 -67 34 -1 70 -6 81 -11 19
-11 65 -4 86 12 7 6 19 6 31 -1 10 -5 39 -10 63 -10 126 0 191 -5 210 -16 7
-5 17 -1 25 10 11 15 16 16 29 5 10 -8 27 -10 52 -5 21 5 43 9 48 10 6 0 17 4
25 7 87 34 110 39 129 28 27 -14 61 3 61 30 0 11 8 20 22 22 30 4 33 23 9 47
-22 22 -28 56 -11 66 6 3 10 19 10 35 0 16 -4 32 -10 35 -5 3 -10 15 -10 26 0
26 -57 82 -112 110 -23 12 -48 28 -56 35 -7 8 -22 14 -33 14 -22 0 -24 11 -7
28 9 9 7 12 -10 12 -13 0 -22 6 -22 15 0 17 0 17 113 -10 53 -13 72 -14 83 -4
10 8 17 9 28 0 7 -6 20 -9 29 -6 13 6 115 -8 160 -21 11 -4 17 0 17 10 0 20
16 21 24 1 3 -8 10 -15 16 -15 15 0 12 43 -5 76 -8 16 -15 41 -15 56 0 16 -15
49 -35 75 -32 45 -166 173 -180 173 -4 0 -27 15 -53 32 -78 54 -104 64 -142
57 -19 -4 -42 -3 -52 2 -21 11 -20 11 -36 -6z m-122 -412 c0 -14 2 -15 9 -4 7
10 16 11 37 4 16 -5 43 -6 61 -3 45 10 63 -5 22 -18 -42 -13 -269 -21 -269
-10 0 4 16 8 35 8 24 0 37 6 45 20 14 26 60 28 60 3z m-16 -177 c12 0 20 -9
21 -22 1 -19 -4 -20 -99 -21 -95 0 -115 5 -116 30 0 4 16 5 35 1 29 -5 35 -3
35 11 0 15 6 17 53 10 28 -4 61 -8 71 -9z m-56 -143 c2 -8 -5 -13 -17 -13 -12
0 -21 6 -21 16 0 18 31 15 38 -3z m-157 -41 c3 -23 15 -55 27 -72 35 -47 30
-54 -35 -44 -32 4 -80 9 -108 10 -53 2 -65 13 -40 37 9 9 15 18 15 19 -9 24
88 101 120 95 9 -1 17 -18 21 -45z m394 18 c78 -45 86 -57 52 -85 -48 -37
-207 -84 -207 -60 0 3 13 23 29 45 16 22 32 60 35 85 9 54 19 56 91 15z m-181
-6 c6 -16 -9 -44 -25 -44 -11 0 -22 38 -14 50 10 15 32 12 39 -6z m-406 -112
c2 -7 -3 -12 -12 -12 -9 0 -16 7 -16 16 0 17 22 14 28 -4z"/>
<path d="M5282 11020 c0 -14 2 -19 5 -12 2 6 2 18 0 25 -3 6 -5 1 -5 -13z"/>
<path d="M5980 10810 c-13 -8 -12 -10 3 -10 9 0 17 5 17 10 0 12 -1 12 -20 0z"/>
<path d="M5840 10450 c0 -7 -7 -9 -16 -6 -26 10 -64 -4 -64 -25 0 -10 6 -19
14 -19 8 0 17 -14 21 -30 10 -44 45 -77 90 -85 22 -4 54 -12 71 -18 17 -5 39
-7 48 -4 14 5 9 14 -24 48 -22 23 -40 47 -40 54 0 7 -14 28 -30 46 -25 28 -32
32 -40 19 -8 -13 -10 -13 -10 2 0 9 -4 20 -10 23 -5 3 -10 1 -10 -5z"/>
<path d="M5226 10112 c-8 -13 0 -46 12 -50 7 -2 12 4 12 12 0 9 7 19 15 22 8
4 15 10 15 15 0 11 -47 12 -54 1z"/>
<path d="M7375 9817 c-4 -10 -5 -21 -1 -24 10 -10 18 4 13 24 -4 17 -4 17 -12
0z"/>
<path d="M4066 9461 c-4 -7 -5 -15 -2 -18 9 -9 19 4 14 18 -4 11 -6 11 -12 0z"/>
<path d="M4872 8380 c0 -14 2 -19 5 -12 2 6 2 18 0 25 -3 6 -5 1 -5 -13z"/>
<path d="M7573 10414 c-18 -9 -33 -23 -33 -31 0 -20 39 -94 64 -121 l21 -24 5
43 c3 23 10 44 16 46 16 5 44 -69 45 -120 0 -23 4 -51 8 -61 7 -18 8 -18 14 5
13 46 8 208 -7 244 -14 32 -18 35 -58 35 -24 0 -58 -8 -75 -16z"/>
<path d="M3885 7468 c-19 -18 -64 -82 -100 -143 -127 -217 -123 -211 -265
-329 -74 -62 -148 -122 -165 -133 -93 -65 -267 -127 -665 -239 -30 -9 -66 -19
-80 -24 -14 -5 -72 -22 -130 -40 -241 -72 -317 -95 -551 -171 -135 -44 -270
-92 -300 -105 -30 -14 -103 -41 -164 -60 -239 -75 -284 -90 -395 -130 -293
-107 -665 -295 -855 -432 -50 -36 -92 -67 -95 -71 -3 -3 -21 -18 -40 -32 -19
-15 -45 -36 -57 -47 l-23 -19 0 -2747 0 -2746 2114 0 2113 0 -4 53 c-2 28 -15
160 -29 292 -13 132 -28 285 -34 340 -9 91 -20 239 -50 685 -21 306 -68 839
-80 910 -5 30 -16 141 -25 245 -8 105 -18 200 -20 212 -7 31 -33 248 -55 463
-11 102 -31 257 -45 345 -59 376 -95 668 -95 781 0 44 -11 145 -24 225 -13 79
-27 182 -31 229 -3 47 -10 126 -16 175 -11 103 -29 488 -23 494 10 10 4 31
130 -454 112 -433 355 -1417 474 -1920 22 -93 53 -222 69 -285 16 -63 39 -155
50 -205 37 -161 72 -319 85 -385 8 -36 28 -130 46 -210 40 -177 42 -105 -35
-1100 -9 -113 -25 -297 -36 -410 -33 -338 -38 -403 -39 -443 l0 -38 593 2
c362 1 597 6 605 12 8 6 16 6 25 -1 7 -6 121 -11 301 -11 l289 -2 -8 33 c-4
18 -9 220 -10 448 -4 594 -35 1486 -60 1725 -3 28 -10 113 -15 189 -6 77 -17
183 -25 235 -15 102 -13 120 25 246 11 39 32 113 46 165 14 52 38 142 53 200
26 97 62 219 128 440 14 47 34 117 44 155 11 39 25 90 33 115 7 25 19 65 26
90 7 25 20 72 30 105 36 122 126 450 165 600 114 442 271 947 331 1069 l24 50
0 -47 c0 -26 -9 -80 -20 -120 -31 -111 -67 -367 -90 -632 -10 -117 -18 -203
-49 -520 -11 -110 -25 -252 -31 -315 -6 -63 -16 -149 -21 -190 -23 -194 -97
-937 -109 -1100 -16 -231 -30 -367 -61 -595 -39 -280 -69 -573 -62 -591 5 -14
-8 -190 -33 -449 -8 -82 -21 -220 -29 -305 -8 -85 -19 -195 -24 -245 -6 -49
-13 -130 -16 -180 -7 -94 -31 -370 -40 -440 -2 -22 -7 -61 -10 -87 l-6 -48
2050 0 2051 0 0 2491 0 2491 -35 48 c-47 64 -253 260 -340 325 -64 47 -170
115 -179 115 -2 0 -80 36 -172 81 -93 44 -207 99 -254 121 -47 22 -170 82
-275 134 -217 106 -485 234 -491 234 -3 0 -149 72 -327 161 -177 89 -360 177
-407 196 -100 40 -119 49 -310 141 -140 67 -163 76 -278 107 -76 21 -154 63
-267 145 -122 89 -158 126 -200 210 -80 157 -89 129 -32 -101 25 -95 52 -235
62 -310 17 -134 17 -137 -4 -245 -27 -140 -117 -475 -161 -604 -5 -14 -21 -65
-35 -115 -15 -49 -45 -146 -66 -215 -21 -69 -39 -139 -39 -155 0 -17 -6 -41
-13 -55 -11 -22 -18 -25 -61 -21 -27 1 -68 11 -92 21 -36 16 -44 17 -54 5 -10
-11 -44 -127 -134 -445 -19 -66 -163 -559 -198 -675 -16 -55 -62 -214 -102
-353 -41 -139 -77 -256 -80 -260 -10 -9 -25 18 -32 58 -15 94 -96 366 -191
650 l-107 316 14 93 c11 75 17 95 31 98 19 5 23 15 34 75 3 21 17 51 31 67 13
16 31 44 39 63 8 18 41 60 73 94 58 61 127 158 173 244 13 25 26 47 29 50 49
49 111 133 108 149 -3 21 -164 199 -312 344 -122 120 -243 180 -261 130 -9
-25 -60 -64 -106 -79 -88 -31 -324 -62 -348 -46 -18 13 1 47 36 64 30 15 42
38 19 38 -37 0 -222 -145 -425 -332 -125 -116 -139 -137 -115 -173 14 -22 22
-25 48 -19 17 4 38 11 47 17 25 16 47 2 77 -49 15 -26 66 -106 113 -178 104
-157 162 -268 185 -356 10 -36 23 -72 29 -80 7 -9 9 -25 4 -40 -4 -14 -7 -55
-8 -91 -1 -70 -2 -75 -88 -268 -29 -67 -70 -166 -89 -220 -81 -220 -185 -531
-205 -606 -18 -71 -86 -412 -104 -522 -4 -24 -10 -43 -14 -43 -13 0 -55 155
-150 545 -50 204 -105 426 -122 495 -17 69 -46 190 -64 270 -19 80 -59 242
-89 360 -31 118 -83 325 -116 460 -154 628 -198 798 -246 965 -8 28 -19 75
-25 105 -12 65 -33 130 -86 265 -49 125 -68 210 -67 300 2 125 90 459 159 600
30 61 65 172 65 204 0 19 -19 12 -55 -21z m40 -2138 c3 -5 -1 -10 -10 -10 -9
0 -13 5 -10 10 3 6 8 10 10 10 2 0 7 -4 10 -10z m15 -80 c0 -5 -4 -10 -10 -10
-5 0 -10 -4 -10 -10 0 -16 30 -12 36 5 7 17 24 20 24 4 0 -17 -78 -79 -100
-79 -13 0 -13 3 2 34 9 22 8 29 -7 46 -18 20 -17 20 23 20 23 0 42 -4 42 -10z
m85 -145 c0 -5 -26 -12 -57 -15 -31 -3 -63 -11 -70 -18 -15 -15 -38 -16 -38
-2 0 19 83 50 125 48 22 -2 40 -7 40 -13z m27 -73 c15 -15 -12 -47 -64 -73
-53 -27 -60 -25 -53 15 6 28 3 36 -14 45 -12 7 -21 17 -21 22 0 15 136 7 152
-9z m28 -106 c0 -15 -10 -19 -67 -31 -30 -6 -42 -23 -28 -37 3 -3 26 -1 51 4
32 7 49 7 57 -1 18 -18 -3 -30 -64 -37 -45 -5 -58 -3 -73 11 -27 28 -17 67 24
87 43 22 100 24 100 4z m44 -155 c10 -46 4 -60 -18 -42 -9 7 -35 11 -63 9 -64
-4 -70 13 -11 31 30 9 50 22 54 33 9 30 28 15 38 -31z m-1 -82 c62 -33 44
-100 -31 -115 -47 -10 -84 18 -80 59 2 25 11 36 38 49 41 21 45 21 73 7z m57
-142 c0 -8 -9 -22 -20 -32 -27 -24 -25 -37 4 -29 27 6 42 -9 23 -23 -6 -5 -34
-15 -61 -21 -41 -11 -52 -11 -64 1 -12 12 -10 17 13 35 32 25 26 41 -11 34
-42 -8 -24 21 22 35 54 16 94 16 94 0z m28 -139 c32 -32 2 -101 -48 -111 -76
-16 -120 64 -61 110 21 16 93 17 109 1z m40 -135 c2 -7 -10 -21 -27 -30 -40
-23 -39 -31 6 -35 26 -2 39 -8 41 -20 4 -22 -20 -34 -87 -42 -50 -7 -53 -6
-48 13 3 11 -1 25 -8 31 -8 6 -11 18 -8 27 3 8 0 19 -8 24 -23 14 5 32 59 40
60 8 74 7 80 -8z m40 -176 c19 -39 -2 -69 -59 -86 -42 -13 -44 -12 -66 14 -34
38 -30 56 17 88 38 27 92 19 108 -16z m18 -126 c-9 -13 -46 -15 -46 -1 0 14
34 30 44 20 4 -4 5 -13 2 -19z m-91 -38 c0 -31 8 -33 78 -19 28 5 37 4 37 -7
0 -16 -91 -41 -120 -32 -34 11 -40 85 -7 85 7 0 13 -11 12 -27z m135 -94 c19
-35 9 -64 -23 -64 -17 0 -32 -7 -38 -17 -21 -38 -79 -9 -79 39 0 17 6 36 14
42 19 16 28 -1 20 -35 -5 -20 -3 -26 7 -22 8 3 15 15 17 29 6 47 62 66 82 28z
m-3 -134 c-27 -24 -97 -36 -97 -16 0 11 69 39 100 40 l25 0 -28 -24z m-87 -65
c0 -5 -4 -10 -10 -10 -5 0 -10 5 -10 10 0 6 5 10 10 10 6 0 10 -4 10 -10z
m110 -90 c-8 -5 -25 -10 -37 -10 -19 0 -23 -5 -23 -34 0 -45 -18 -56 -26 -17
-9 44 -9 45 17 58 29 16 92 18 69 3z m-31 -127 c2 -2 -3 -3 -11 -3 -9 0 -19 7
-22 16 -6 15 -4 15 11 3 10 -7 20 -15 22 -16z m95 -12 c6 -10 -22 -37 -29 -29
-8 7 5 38 15 38 5 0 11 -4 14 -9z m36 -110 c0 -14 -13 -21 -61 -30 -34 -7 -63
-10 -66 -7 -11 11 9 24 48 29 24 3 46 13 51 21 11 20 28 12 28 -13z m-50 -181
c12 -8 11 -10 -7 -10 -12 0 -25 5 -28 10 -8 13 15 13 35 0z m950 -1682 c-1 -7
-7 -24 -15 -38 -37 -65 -13 -115 131 -262 116 -119 144 -163 175 -270 24 -84
30 -88 80 -62 17 8 39 14 51 12 17 -3 20 -11 22 -63 1 -50 6 -67 33 -104 18
-24 30 -47 28 -51 -7 -12 -93 -29 -223 -45 -62 -8 -122 -20 -134 -26 -21 -12
-21 -12 6 -26 15 -8 39 -15 54 -16 21 -2 28 -8 30 -29 3 -24 0 -27 -28 -26
-17 1 -36 -4 -42 -10 -21 -21 4 -32 72 -32 69 0 85 -7 75 -32 -5 -12 -51 -18
-165 -22 -33 -1 -35 1 -38 34 -6 85 -14 120 -27 120 -18 0 -48 -51 -76 -130
-25 -72 -53 -110 -81 -110 -27 0 -33 44 -14 111 21 77 21 153 -1 190 -15 26
-16 31 -3 39 8 5 12 11 10 12 -34 26 -67 38 -104 38 l-45 0 3 -37 c2 -23 12
-44 25 -54 28 -23 40 -58 30 -91 -11 -39 -70 -128 -85 -128 -6 0 -22 26 -35
57 -43 107 -53 120 -135 169 -16 9 -14 13 21 45 67 60 85 80 111 121 40 63 64
144 64 215 0 34 4 63 8 63 11 0 57 -50 71 -78 7 -13 20 -22 29 -20 33 6 41
113 16 205 -31 109 -47 209 -40 238 11 45 77 105 115 105 18 0 31 -5 31 -12z
m500 -964 c6 -14 8 -30 4 -35 -7 -12 -145 -9 -161 3 -7 5 -14 5 -18 -2 -3 -5
-15 -10 -26 -10 -14 0 -19 7 -19 25 0 25 1 25 83 25 45 0 89 5 97 10 23 15 30
12 40 -16z m18 -113 c3 -21 1 -22 -80 -19 -77 3 -83 5 -86 25 -3 22 -1 23 80
20 77 -3 83 -5 86 -26z m-228 -85 c0 -7 -7 -21 -15 -32 -8 -10 -15 -22 -15
-26 0 -3 60 -8 134 -10 74 -2 137 -6 141 -10 4 -3 9 -33 12 -66 l6 -60 -69 -6
c-93 -8 -572 -21 -764 -21 l-155 0 -3 71 -3 71 107 6 c59 4 175 7 258 7 196 0
286 9 286 27 0 10 -10 12 -39 7 -33 -5 -41 -3 -50 14 -15 28 -14 31 8 40 32
12 161 2 161 -12z"/>
<path d="M4058 4663 c-41 -11 -26 -63 18 -63 19 0 54 23 54 35 0 2 -7 11 -16
19 -15 16 -25 17 -56 9z"/>
<path d="M4143 4392 c-32 -5 -49 -28 -33 -47 25 -31 97 -5 84 30 -7 17 -22 22
-51 17z"/>
<path d="M4181 4087 c-25 -30 16 -66 60 -52 15 5 19 14 17 33 -2 22 -9 28 -34
30 -18 2 -36 -3 -43 -11z"/>
<path d="M5658 162 c-22 -4 -24 -32 -3 -32 9 0 18 7 22 15 7 19 3 22 -19 17z"/>
<path d="M5710 145 c0 -8 5 -15 10 -15 6 0 10 7 10 15 0 8 -4 15 -10 15 -5 0
-10 -7 -10 -15z"/>
<path d="M6747 7383 c-4 -3 -7 -36 -6 -72 1 -64 1 -65 14 -36 8 17 14 44 14
60 1 33 -11 59 -22 48z"/>
<path d="M6696 7130 c-10 -25 -21 -51 -24 -59 -3 -9 -1 -12 6 -7 18 11 44 73
40 93 -2 12 -9 3 -22 -27z"/>
<path d="M5940 6985 c0 -22 4 -34 10 -30 6 3 10 17 10 30 0 13 -4 27 -10 30
-6 4 -10 -8 -10 -30z"/>
<path d="M5496 6972 c-8 -13 18 -57 37 -60 12 -3 17 3 17 22 0 16 -6 26 -15
26 -8 0 -15 5 -15 10 0 12 -17 13 -24 2z"/>
<path d="M6610 6974 c0 -5 -14 -24 -30 -43 -17 -18 -30 -36 -30 -40 0 -3 -16
-23 -35 -44 -57 -62 -40 -62 21 0 53 55 92 119 80 131 -3 3 -6 1 -6 -4z"/>
<path d="M6377 6704 c-42 -40 -101 -91 -130 -113 -28 -21 -61 -49 -72 -61 -29
-32 -186 -148 -294 -215 -8 -5 -33 -25 -55 -42 -22 -18 -45 -33 -52 -33 -8 0
-18 -9 -24 -20 -6 -11 -17 -20 -24 -20 -7 0 -27 -13 -44 -29 -17 -16 -45 -37
-64 -47 -35 -18 -86 -57 -146 -111 -29 -27 -45 -33 -79 -33 -24 0 -43 -4 -43
-10 0 -17 39 -50 60 -50 59 0 173 67 264 155 29 27 103 95 171 154 17 15 62
51 100 81 85 65 215 170 233 187 8 8 30 26 50 41 21 15 39 29 42 32 3 3 30 24
60 47 57 43 134 135 128 152 -1 5 -38 -24 -81 -65z"/>
<path d="M5020 6520 c0 -36 3 -40 25 -40 28 0 32 12 10 30 -8 7 -15 21 -15 31
0 11 -4 19 -10 19 -5 0 -10 -18 -10 -40z"/>
<path d="M5050 6237 c0 -3 17 -17 37 -33 20 -15 33 -23 29 -16 -8 13 -66 56
-66 49z"/>
<path d="M6210 5396 c0 -8 9 -20 21 -26 19 -11 20 -10 10 9 -15 27 -31 36 -31
17z"/>
</g>
</svg>
